<svg fill="none" height="32" viewBox="0 0 32 32" width="32" xmlns="http://www.w3.org/2000/svg" xmlns:xlink="http://www.w3.org/1999/xlink"><linearGradient id="a" gradientUnits="userSpaceOnUse" x1="15.9967" x2="15.9967" y1="4.75977" y2="25"><stop offset="0" stop-color="#f5e4c9"/><stop offset="1" stop-color="#b5955f"/></linearGradient><clipPath id="b"><path d="m5.11963 4.75977h21.76v19.84h-21.76z"/></clipPath><rect fill="#000" height="32" rx="10" width="32"/><g clip-path="url(#b)" fill="url(#a)"><path d="m18.5957 7.30782c-.2231-.22385-.5845-.24596-.8386-.05251-1.6037 1.22705-4.6671 2.1114-7.29 1.63882.6663-2.37947 2.894-4.13436 5.5339-4.13436 2.7895 0 5.1188 1.95664 5.6298 4.54062-1.3326-.3648-1.7053-.66603-3.0351-1.99257z"/><path d="m16.0009 15.9912c3.086 0 5.6073-2.3961 5.7315-5.3863-1.7702-.4477-2.3264-.76002-3.6563-2.05616-1.8804 1.21599-4.9833 2.06446-7.8067 1.56416-.0028.0857-.0056.1742-.0056.2626 0 3.098 2.5749 5.6157 5.7371 5.6157z"/><path d="m20.0921 17.6079-.0002.0002-.0027-.0002z"/><path d="m20.0919 17.6081c3.3812.2283 6.1807 3.7564 6.7848 6.9918h-21.76c.60703-3.2362 3.40785-6.7626 6.7875-6.992.7228.6605 2.2813 1.1193 4.0939 1.1193 1.8125 0 3.3709-.4587 4.0938-1.1191z"/></g></svg>