<svg fill="none" height="21" viewBox="0 0 25 21" width="25" xmlns="http://www.w3.org/2000/svg" xmlns:xlink="http://www.w3.org/1999/xlink"><clipPath id="a"><path d="m0 .5h25v20h-25z"/></clipPath><g clip-path="url(#a)"><path d="m24.6715.593829c-.2008.083317-.4036.168665-.3124.004064-.8964.760007-1.6914 1.530177-2.4641 2.306447-.7706.77626-1.5109 1.55862-2.2471 2.34301-.7301.7783-1.4602 1.5566-2.1964 2.34099-.3691.38814-.7341.7722-1.1053 1.14611-.3731.37797-.7544.75391-1.1458 1.13595-.1542.1991-.4847.5629-.9411 1.0486-.4542.4795-1.0221 1.079-1.6508 1.7435-.8315.8616-1.8739 1.8289-2.89811 2.849-.12979-.1544-.25351-.3048-.37316-.4491-.4766-.5791-.86599-1.0668-1.12355-1.4042l-.15414-.1767c-.43603-.5507-.93291-1.1523-1.43384-1.7212-.25148-.2845-.50093-.5568-.76255-.8251l-.10952-.1117-.07098-.0732-.04868-.0447c-.06287-.0569-.12574-.1138-.18658-.1687-.12371-.1097-.24337-.2133-.36099-.3089-.45024-.33322-.92278-.65632-1.39126-.97943.1156.24386.21903.47145.30218.6767-.37113-.42471-.74227-.85146-.95116-.95509-.95522-.75798-.67129-.09348-.59625.46332.11965.34139-.34072.15037-.09532.632-.24743-.28248-.37114-.42473-.61856-.70922-.12777.0569.82745.81492.49282.76612-.20484-.3028-.53744-.54869-.78487-.83115-.04664.21743.8234 1.01195.65507 1.08715-.1663-.1239-.53135-.9449-.74227-.85143-.04259.01829.20483.30279.32855.44503-.827457-.81284-1.411541-1.14407-.880187-.19914-.24134-.27637-.521213-.72343-.80311493-.99167v.00406c.12371193.14835.31435093.42675.43197893.56087l-.434007-.49787c0 .04674.00405614.09551.0101403.14834.0912627.14022.1845547.2784.2981257.40642-.095319-.10973-.192666-.21946-.2879853-.33123.0202807.13006.0527298.27027.0973473.41658.245396.48161.425894.99374.610449 1.20504l1.093133 1.3168 1.08298 1.2843 1.01607 1.2945c.35288.447.70982.8941 1.06879 1.3391.06692-.0488.05273-.1951.20078-.0731.43806.4104.53338.9571.97753 1.3696l.12979-.0508c.25554.3942.50905.8128.79095 1.2375.17441.1951.35288.3902.54149.5914.09532.1016.19267.2032.30624.315.06084.0589.11155.1117.20078.193l.06084.0549.10952.0935.05881.0487.0791.061c.19266.1402.41778.256.6429.3272l1.25942.4044.8234-.9714c.2353-.2784.4725-.5527.7179-.8291-.0486-.0183-.0892-.0427-.0426-.1138.2231-.2743.6064-.5873.9938-.9368.0507-.0589.1014-.1179.1501-.1748.0243-.0609.002-.1056-.0102-.1341.1745-.1585.3387-.2967.4908-.4206.428-.4918.868-.9978 1.3081-1.5221.2191-.2601.4401-.5303.6571-.8006.2069-.2581.4138-.5162.6206-.7763.8619-1.0506 1.7462-2.1276 2.6649-3.2473.3468-.5243.6835-1.04449 1.0526-1.50781.5699-.66044 1.3973-1.40216 1.9956-2.00163-.4279-.23166.8396-1.87767.215-1.91018.3995-.40033 1.0059-.99573.943-1.11969-.1866-.37391-.221-1.00793.72-2.25564.3934-.46332 1.2168-.979478 1.3365-1.184721.0831-.15444-.1055-.08738-.3083 0z" fill="#d02f19"/></g></svg>