<svg fill="none" height="57" viewBox="0 0 57 57" width="57" xmlns="http://www.w3.org/2000/svg" xmlns:xlink="http://www.w3.org/1999/xlink"><linearGradient id="a" gradientUnits="userSpaceOnUse" x1="26.7842" x2="26.7842" y1="17" y2="33"><stop offset="0" stop-color="#f5e4c9"/><stop offset="1" stop-color="#9b7434"/></linearGradient><path d="m28.2842 4.51948 28.2843 23.76482-28.2843 23.7648-28.28429108-23.7648z" fill="#000"/><path d="m31.8096 39.744c-.88 0-1.768-.208-2.664-.624-.88-.4-1.736-.832-2.568-1.296-.768-.416-1.528-.792-2.28-1.128-.752-.32-1.48-.48-2.184-.48-.272 0-.528.016-.768.048s-.448.088-.624.168c-.224.08-.432.176-.624.288s-.36.168-.504.168c-.128 0-.224-.032-.288-.096-.048-.048-.072-.128-.072-.24 0-.192.16-.392.48-.6s.728-.424 1.224-.648c.512-.224 1.048-.448 1.608-.672.576-.208 1.112-.416 1.608-.624.512-.208.936-.392 1.272-.552 1.568-.8 2.864-1.784 3.888-2.952 1.04-1.168 1.816-2.472 2.328-3.912.512-1.456.768-3 .768-4.632 0-.768-.104-1.448-.312-2.04-.192-.608-.496-1.088-.912-1.44s-.968-.528-1.656-.528c-.736 0-1.44.224-2.112.672-.656.432-1.264 1.016-1.824 1.752s-1.048 1.568-1.464 2.496c-.4.912-.72 1.856-.96 2.832-.224.96-.336 1.88-.336 2.76 0 .688.112 1.344.336 1.968.24.624.632 1.144 1.176 1.56.56.4 1.336.6 2.328.6h.48c.16-.016.328-.04.504-.072l-.84.744c-.128 0-.304.008-.528.024-.208.032-.424.048-.648.048-1.168 0-2.184-.264-3.048-.792-.848-.544-1.504-1.28-1.968-2.208-.448-.944-.672-1.992-.672-3.144 0-1.248.232-2.472.696-3.672.464-1.216 1.128-2.304 1.992-3.264.864-.976 1.888-1.752 3.072-2.328s2.504-.864 3.96-.864c1.152 0 2.144.272 2.976.816.848.528 1.504 1.256 1.968 2.184s.696 1.976.696 3.144-.232 2.312-.696 3.432c-.464 1.104-1.128 2.136-1.992 3.096s-1.896 1.816-3.096 2.568c-.704.448-1.36.832-1.968 1.152-.592.336-1.24.648-1.944.936-.704.304-1.576.616-2.616.936l-.216-.168c.336-.16.688-.28 1.056-.36s.72-.12 1.056-.12c.624 0 1.304.144 2.04.432.752.304 1.48.64 2.184 1.008.784.416 1.528.8 2.232 1.152s1.32.528 1.848.528c.48 0 .912-.112 1.296-.336s.704-.512.96-.864c.176-.24.328-.368.456-.384.128 0 .216.056.264.168.048.128.04.272-.024.432-.144.304-.36.624-.648.96-.288.352-.632.672-1.032.96-.384.304-.808.544-1.272.72-.464.192-.928.288-1.392.288z" fill="url(#a)"/></svg>