<svg fill="none" height="110" viewBox="0 0 110 110" width="110" xmlns="http://www.w3.org/2000/svg" xmlns:xlink="http://www.w3.org/1999/xlink"><linearGradient id="a" gradientUnits="userSpaceOnUse" x1="79.5" x2="30.5" y1="30.5" y2="79.5"><stop offset="0" stop-color="#ddc7a2"/><stop offset="1" stop-color="#b5883b"/></linearGradient><linearGradient id="b" gradientUnits="userSpaceOnUse" x1="53" x2="53" y1="32" y2="75"><stop offset="0" stop-color="#f5e4c9"/><stop offset="1" stop-color="#9b7434"/></linearGradient><path d="m55 8.78833 55 46.21167-55 46.212-54.99999904-46.212z" fill="#000"/><path d="m55 13.8296 49 41.1704-49 41.1704-49-41.1704z" fill="#000"/><path d="m6.77726 55 48.22274-40.5173 48.223 40.5173-48.223 40.5173z" stroke="url(#a)" stroke-opacity=".7"/><path d="m43.3801 65.4601c-1.1175 0-2.0378-.2848-2.7608-.8545-.7231-.5697-1.249-1.3366-1.5776-2.3007-.3068-.986-.4382-2.1034-.3944-3.3524.0657-1.2489.3067-2.5417.723-3.8782.4164-1.4023.986-2.7499 1.7091-4.0426.7231-1.2928 1.5557-2.4431 2.4979-3.451s1.972-1.8077 3.0894-2.3993c1.1394-.6135 2.3336-.9203 3.5825-.9203 1.1613 0 2.0925.2958 2.7937.8874.723.5697 1.238 1.3476 1.5447 2.3336.3287.986.4601 2.0925.3944 3.3195-.0438 1.227-.2739 2.4869-.6902 3.7797-.4382 1.4461-1.0298 2.8265-1.7748 4.1412-.7231 1.2927-1.5666 2.454-2.5307 3.4838-.9641 1.0079-2.0049 1.8077-3.1224 2.3993-1.1174.5697-2.2787.8545-3.4838.8545zm.6244-1.1503c.5259 0 1.0627-.252 1.6105-.7559.5697-.504 1.1175-1.1832 1.6433-2.0378.5478-.8545 1.0518-1.8295 1.5119-2.9251.4821-1.0956.9093-2.2349 1.2818-3.4181.3506-1.1613.6245-2.3117.8217-3.451.2191-1.1394.3286-2.1802.3286-3.1224 0-.9421-.1314-1.6871-.3944-2.2349-.2629-.5697-.6792-.8545-1.2489-.8545-.7231 0-1.4461.4272-2.1692 1.2818-.7231.8326-1.4133 1.9391-2.0706 3.3195-.6354 1.3585-1.1941 2.8265-1.6762 4.4041-.3506 1.1394-.6354 2.2897-.8545 3.451s-.3396 2.224-.3616 3.1881c-.0219.9422.0877 1.7091.3287 2.3007.241.5697.6573.8545 1.2489.8545zm12.1836 1.9391c-.9641 0-1.6981-.1314-2.2021-.3944-.482-.241-.7231-.5697-.7231-.986 0-.4601.0877-.8435.263-1.1503s.4382-.4601.7888-.4601c.1314 0 .3177.0657.5587.1972.241.1095.493.241.7559.3944.3068.2191.6574.4163 1.0518.5916.3944.1533.7997.23 1.216.23 1.0956 0 2.0597-.3177 2.8923-.9531.8326-.6573 1.479-1.49 1.9391-2.4979.4602-1.0298.6902-2.0925.6902-3.188 0-.7669-.1753-1.4023-.5258-1.9063-.3287-.5259-.8765-.7888-1.6434-.7888-.4382 0-.8545.0767-1.2489.2301-.3944.1314-.734.2629-1.0189.3944-.1533.0657-.3067.0767-.4601.0328-.1315-.0657-.1972-.1862-.1972-.3615 0-.2629.0986-.493.2958-.6902.2191-.1972.4711-.3725.7559-.5259.2849-.1533.5259-.2739.7231-.3615.5916-.2629 1.2051-.5697 1.8405-.9203.6355-.3725 1.2161-.7778 1.742-1.216.5477-.4602.986-.9532 1.3146-1.479.3506-.5478.5259-1.1285.5259-1.742s-.1862-1.1393-.5587-1.5776c-.3506-.4382-.8436-.6573-1.479-.6573-.8765 0-1.6215.241-2.235.7231-.6135.4601-1.1613 1.0407-1.6433 1.7419-.1096.1753-.2191.3068-.3287.3944-.0876.0876-.1862.1315-.2958.1315-.1095 0-.2519-.1205-.4272-.3616-.1753-.241-.263-.4601-.263-.6573 0-.241.1863-.5806.5588-1.0189.3725-.4601.8764-.9312 1.5118-1.4132.6574-.4821 1.4023-.8765 2.235-1.1832.8326-.3287 1.6981-.493 2.5964-.493.8765 0 1.6324.1533 2.2678.4601.6574.2848 1.1504.6902 1.479 1.2161.3506.5039.5259 1.0627.5259 1.6762 0 .5916-.1753 1.1613-.5259 1.709-.3286.5259-.7669 1.0299-1.3146 1.5119-.5478.482-1.1613.9203-1.8406 1.3147-.6573.3725-1.3146.7011-1.972.986-.0657.0219-.1095.0657-.1314.1314-.0219.0439.0109.0767.0986.0986.723.0439 1.3913.2301 2.0048.5588.6355.3286 1.1394.7778 1.5119 1.3475.3944.5478.5916 1.2051.5916 1.972 0 .8764-.252 1.7419-.7559 2.5965-.4821.8545-1.1394 1.6652-1.972 2.4321-.8327.7669-1.7639 1.4461-2.7937 2.0377-.986.5697-2.0158 1.0189-3.0895 1.3476-1.0517.3505-2.0815.5258-3.0894.5258z" fill="url(#b)"/></svg>