<svg fill="none" height="110" viewBox="0 0 111 110" width="111" xmlns="http://www.w3.org/2000/svg" xmlns:xlink="http://www.w3.org/1999/xlink"><linearGradient id="a" gradientUnits="userSpaceOnUse" x1="80" x2="31" y1="30.5" y2="79.5"><stop offset="0" stop-color="#ddc7a2"/><stop offset="1" stop-color="#b5883b"/></linearGradient><linearGradient id="b" gradientUnits="userSpaceOnUse" x1="53.5" x2="53.5" y1="32" y2="75"><stop offset="0" stop-color="#f5e4c9"/><stop offset="1" stop-color="#9b7434"/></linearGradient><path d="m55.5 8.78833 55 46.21167-55 46.212-54.999999-46.212z" fill="#000"/><path d="m55.5 13.8296 49 41.1704-49 41.1704-49-41.1704z" fill="#000"/><path d="m7.27726 55 48.22274-40.5173 48.223 40.5173-48.223 40.5173z" stroke="url(#a)" stroke-opacity=".7"/><path d="m43.8801 65.4601c-1.1175 0-2.0378-.2848-2.7608-.8545-.7231-.5697-1.249-1.3366-1.5776-2.3007-.3068-.986-.4382-2.1034-.3944-3.3524.0657-1.2489.3067-2.5417.723-3.8782.4164-1.4023.986-2.7499 1.7091-4.0426.7231-1.2928 1.5557-2.4431 2.4979-3.451s1.972-1.8077 3.0894-2.3993c1.1394-.6135 2.3336-.9203 3.5825-.9203 1.1613 0 2.0925.2958 2.7937.8874.723.5697 1.238 1.3476 1.5447 2.3336.3287.986.4601 2.0925.3944 3.3195-.0438 1.227-.2739 2.4869-.6902 3.7797-.4382 1.4461-1.0298 2.8265-1.7748 4.1412-.7231 1.2927-1.5666 2.454-2.5307 3.4838-.9641 1.0079-2.0049 1.8077-3.1224 2.3993-1.1174.5697-2.2787.8545-3.4838.8545zm.6244-1.1503c.5259 0 1.0627-.252 1.6105-.7559.5697-.504 1.1175-1.1832 1.6433-2.0378.5478-.8545 1.0518-1.8295 1.5119-2.9251.4821-1.0956.9093-2.2349 1.2818-3.4181.3506-1.1613.6245-2.3117.8217-3.451.2191-1.1394.3286-2.1802.3286-3.1224 0-.9421-.1314-1.6871-.3944-2.2349-.2629-.5697-.6792-.8545-1.2489-.8545-.7231 0-1.4461.4272-2.1692 1.2818-.7231.8326-1.4133 1.9391-2.0706 3.3195-.6354 1.3585-1.1941 2.8265-1.6762 4.4041-.3506 1.1394-.6354 2.2897-.8545 3.451s-.3396 2.224-.3616 3.1881c-.0219.9422.0877 1.7091.3287 2.3007.241.5697.6573.8545 1.2489.8545zm21.3862.8217c-.4163-.0219-.8107-.0439-1.1832-.0658s-.7449-.0438-1.1174-.0657-.7669-.0329-1.1832-.0329-.8655 0-1.3476 0c-.6135 0-1.2927 0-2.0377 0-.7231 0-1.4352.011-2.1363.0329-.7012 0-1.3585.011-1.972.0329-.5916.0219-1.0627.0438-1.4133.0657-.1972 0-.2739-.0986-.2301-.2958.0219-.2191.1096-.4054.263-.5587l7.2306-5.916c1.2928-1.0737 2.3664-2.0925 3.221-3.0566.8545-.9641 1.5009-1.9063 1.9391-2.8266.4601-.9202.6902-1.8076.6902-2.6622 0-1.0298-.2629-1.7638-.7888-2.202-.5259-.4383-1.1942-.6574-2.0049-.6574s-1.5666.2301-2.2678.6902c-.7011.4383-1.3475 1.0079-1.9391 1.7091-.1315.1315-.2629.2739-.3944.4273-.1096.1314-.2191.1972-.3287.1972-.1095 0-.1972-.0658-.2629-.1972-.0438-.1534-.0438-.3177 0-.493.0657-.4163.2958-.8984.6902-1.4462.3944-.5697.9093-1.1284 1.5447-1.6762.6574-.5477 1.4023-1.0079 2.235-1.3804.8545-.3725 1.7529-.5477 2.695-.5258 1.5557 0 2.7718.3944 3.6482 1.1832.8765.7669 1.3147 1.7309 1.3147 2.8922 0 .8984-.1972 1.7529-.5916 2.5636s-.9203 1.5776-1.5776 2.3007c-.6354.7231-1.3256 1.4133-2.0706 2.0706-.3725.3287-.8874.745-1.5447 1.2489-.6355.504-1.3366 1.0518-2.1035 1.6434-.745.5916-1.468 1.1613-2.1692 1.709-.6792.5259-1.2489.9641-1.7091 1.3147-.4601.3506-.723.5478-.7888.5916-.0876.0657-.0767.1315.0329.1972.1096.0438.2191.0767.3287.0986.3725.0438.7997.0767 1.2818.0986.482.0219.9641.0329 1.4461.0329.5259 0 1.0846-.011 1.6762-.0329.6135-.0219 1.1613-.0548 1.6433-.0986.5259-.0438.9641-.1205 1.3147-.2301.3725-.1314.7121-.3177 1.0189-.5587.3286-.2629.6683-.6135 1.0188-1.0517.1096-.1534.263-.3068.4602-.4602.1972-.1753.4053-.2629.6244-.2629.1534-.0219.252.0548.2958.2301.0439.1533.0219.3067-.0657.4601-.3506.504-.6573.9641-.9203 1.3804-.2629.3944-.493.7559-.6902 1.0846-.1753.3287-.3396.6354-.493.9203-.1533.2629-.2958.5368-.4272.8216-.1096.263-.263.4602-.4602.5916-.1972.1096-.3286.1644-.3944.1644z" fill="url(#b)"/></svg>