<svg fill="none" height="110" viewBox="0 0 110 110" width="110" xmlns="http://www.w3.org/2000/svg" xmlns:xlink="http://www.w3.org/1999/xlink"><linearGradient id="a" gradientUnits="userSpaceOnUse" x1="79.5" x2="30.5" y1="30.5" y2="79.5"><stop offset="0" stop-color="#ddc7a2"/><stop offset="1" stop-color="#b5883b"/></linearGradient><linearGradient id="b" gradientUnits="userSpaceOnUse" x1="53" x2="53" y1="32" y2="75"><stop offset="0" stop-color="#f5e4c9"/><stop offset="1" stop-color="#9b7434"/></linearGradient><path d="m55 8.78833 55 46.21167-55 46.212-54.99999904-46.212z" fill="#000"/><path d="m55 13.8296 49 41.1704-49 41.1704-49-41.1704z" fill="#000"/><path d="m6.77726 55 48.22274-40.5173 48.223 40.5173-48.223 40.5173z" stroke="url(#a)" stroke-opacity=".7"/><path d="m43.3801 65.4601c-1.1175 0-2.0378-.2848-2.7608-.8545-.7231-.5697-1.249-1.3366-1.5776-2.3007-.3068-.986-.4382-2.1034-.3944-3.3524.0657-1.2489.3067-2.5417.723-3.8782.4164-1.4023.986-2.7499 1.7091-4.0426.7231-1.2928 1.5557-2.4431 2.4979-3.451s1.972-1.8077 3.0894-2.3993c1.1394-.6135 2.3336-.9203 3.5825-.9203 1.1613 0 2.0925.2958 2.7937.8874.723.5697 1.238 1.3476 1.5447 2.3336.3287.986.4601 2.0925.3944 3.3195-.0438 1.227-.2739 2.4869-.6902 3.7797-.4382 1.4461-1.0298 2.8265-1.7748 4.1412-.7231 1.2927-1.5666 2.454-2.5307 3.4838-.9641 1.0079-2.0049 1.8077-3.1224 2.3993-1.1174.5697-2.2787.8545-3.4838.8545zm.6244-1.1503c.5259 0 1.0627-.252 1.6105-.7559.5697-.504 1.1175-1.1832 1.6433-2.0378.5478-.8545 1.0518-1.8295 1.5119-2.9251.4821-1.0956.9093-2.2349 1.2818-3.4181.3506-1.1613.6245-2.3117.8217-3.451.2191-1.1394.3286-2.1802.3286-3.1224 0-.9421-.1314-1.6871-.3944-2.2349-.2629-.5697-.6792-.8545-1.2489-.8545-.7231 0-1.4461.4272-2.1692 1.2818-.7231.8326-1.4133 1.9391-2.0706 3.3195-.6354 1.3585-1.1941 2.8265-1.6762 4.4041-.3506 1.1394-.6354 2.2897-.8545 3.451s-.3396 2.224-.3616 3.1881c-.0219.9422.0877 1.7091.3287 2.3007.241.5697.6573.8545 1.2489.8545zm10.4416.7888c-.1095 0-.2081-.0329-.2958-.0986-.0876-.0876-.1314-.1862-.1314-.2958.0438-.1753.1314-.3177.2629-.4273.1315-.1095.2958-.1862.493-.23.986-.2191 1.8186-.4711 2.4979-.756.6792-.3067 1.1393-.8326 1.3804-1.5776l3.6482-11.7991c.2629-.8326.1643-1.4023-.2958-1.7091-.4383-.3067-1.0408-.5258-1.8077-.6573-.1315-.0438-.2739-.1096-.4273-.1972-.1314-.1096-.1753-.252-.1314-.4273.0438-.241.1753-.4163.3944-.5258.2191-.1315.4382-.2082.6573-.2301.8107-.0657 1.5995-.1862 2.3664-.3615.7888-.1972 1.5557-.4383 2.3007-.7231.7449-.2848 1.4461-.5697 2.1034-.8545.0877-.0439.1863-.0767.2958-.0986.1096-.0439.1863-.0658.2301-.0658.1315 0 .2301.0329.2958.0986.0657.0658.0767.1534.0329.263-.1096.2848-.2411.6135-.3944.986-.1534.3725-.3177.8326-.493 1.3804l-4.7 15.1515c-.1314.4601-.1095.8107.0658 1.0517.1753.2411.4601.4383.8545.5916.4163.1315.9093.2849 1.479.4602.1315.0657.252.1424.3615.23.1096.0877.1425.2082.0986.3616-.0219.1314-.1095.241-.2629.3286-.1315.0658-.2739.0986-.4273.0986-.5039 0-1.0736-.0109-1.709-.0328-.6355-.0219-1.2599-.0439-1.8734-.0658s-1.1504-.0328-1.6105-.0328c-.482 0-1.0408.0109-1.6762.0328-.6135.0219-1.238.0439-1.8734.0658-.6354.0438-1.2051.0657-1.7091.0657z" fill="url(#b)"/></svg>