<svg fill="none" height="140" viewBox="0 0 1076 140" width="1076" xmlns="http://www.w3.org/2000/svg" xmlns:xlink="http://www.w3.org/1999/xlink"><linearGradient id="a" gradientUnits="userSpaceOnUse" x1="1076" x2="0" y1="190" y2="190"><stop offset="0" stop-color="#e1dccc" stop-opacity=".1"/><stop offset="1" stop-color="#e1dccc" stop-opacity=".25"/></linearGradient><clipPath id="b"><path d="m0 0h1076v140h-1076z"/></clipPath><g clip-path="url(#b)" fill="url(#a)"><path d="m29.3796 0c-.4272 16.2555-13.3503 29.3417-29.3796 29.7334.42721-16.2554 13.3503-29.341702 29.3796-29.7334z"/><path d="m29.9314 0c.4272 16.2555 13.3503 29.3417 29.3796 29.7334-.4272-16.2554-13.3503-29.341702-29.3796-29.7334z"/><path d="m29.9314 60.6241c.4272-16.2554 13.3503-29.3417 29.3796-29.7334-.4272 16.2555-13.3503 29.3417-29.3796 29.7334z"/><path d="m29.3796 60.6241c-.4272-16.2554-13.3503-29.3417-29.3796-29.7334.42721 16.2555 13.3503 29.3417 29.3796 29.7334z"/><path d="m89.2691 0c.4273 16.2555 13.3499 29.3417 29.3799 29.7334-.427-16.2554-13.351-29.341702-29.3799-29.7334z"/><path d="m88.7173 0c-.4272 16.2555-13.3503 29.3417-29.3796 29.7334.4272-16.2554 13.3503-29.341702 29.3796-29.7334z"/><path d="m89.2691 60.6241c.4273-16.2554 13.3499-29.3417 29.3799-29.7334-.427 16.2555-13.351 29.3417-29.3799 29.7334z"/><path d="m88.7173 60.6241c-.4272-16.2554-13.3503-29.3417-29.3796-29.7334.4272 16.2555 13.3503 29.3417 29.3796 29.7334z"/><path d="m148.598 0c.427 16.2555 13.35 29.3417 29.38 29.7334-.428-16.2554-13.351-29.341702-29.38-29.7334z"/><path d="m148.046 0c-.427 16.2555-13.35 29.3417-29.379 29.7334.427-16.2554 13.35-29.341702 29.379-29.7334z"/><path d="m148.598 60.6241c.427-16.2554 13.35-29.3417 29.38-29.7334-.428 16.2555-13.351 29.3417-29.38 29.7334z"/><path d="m148.046 60.6241c-.427-16.2554-13.35-29.3417-29.379-29.7334.427 16.2555 13.35 29.3417 29.379 29.7334z"/><path d="m207.936 0c.427 16.2555 13.35 29.3417 29.379 29.7334-.427-16.2554-13.35-29.341702-29.379-29.7334z"/><path d="m207.384 0c-.427 16.2555-13.35 29.3417-29.38 29.7334.428-16.2554 13.351-29.341702 29.38-29.7334z"/><path d="m207.936 60.6241c.427-16.2554 13.35-29.3417 29.379-29.7334-.427 16.2555-13.35 29.3417-29.379 29.7334z"/><path d="m207.384 60.6241c-.427-16.2554-13.35-29.3417-29.38-29.7334.428 16.2555 13.351 29.3417 29.38 29.7334z"/><path d="m268.857 0c.428 16.2555 13.351 29.3417 29.38 29.7334-.427-16.2554-13.35-29.341702-29.38-29.7334z"/><path d="m268.315 0c-.428 16.2555-13.351 29.3417-29.38 29.7334.427-16.2554 13.35-29.341702 29.38-29.7334z"/><path d="m268.857 60.6241c.428-16.2554 13.351-29.3417 29.38-29.7334-.427 16.2555-13.35 29.3417-29.38 29.7334z"/><path d="m268.315 60.6241c-.428-16.2554-13.351-29.3417-29.38-29.7334.427 16.2555 13.35 29.3417 29.38 29.7334z"/><path d="m328.195 0c.427 16.2555 13.351 29.3417 29.38 29.7334-.427-16.2554-13.351-29.341702-29.38-29.7334z"/><path d="m327.643 0c-.427 16.2555-13.35 29.3417-29.379 29.7334.427-16.2554 13.35-29.341702 29.379-29.7334z"/><path d="m328.195 60.6241c.427-16.2554 13.351-29.3417 29.38-29.7334-.427 16.2555-13.351 29.3417-29.38 29.7334z"/><path d="m327.643 60.6241c-.427-16.2554-13.35-29.3417-29.379-29.7334.427 16.2555 13.35 29.3417 29.379 29.7334z"/><path d="m387.524 0c.427 16.2555 13.35 29.3417 29.38 29.7334-.428-16.2554-13.351-29.341702-29.38-29.7334z"/><path d="m386.981 0c-.427 16.2555-13.35 29.3417-29.38 29.7334.428-16.2554 13.351-29.341702 29.38-29.7334z"/><path d="m387.524 60.6241c.427-16.2554 13.35-29.3417 29.38-29.7334-.428 16.2555-13.351 29.3417-29.38 29.7334z"/><path d="m386.981 60.6241c-.427-16.2554-13.35-29.3417-29.38-29.7334.428 16.2555 13.351 29.3417 29.38 29.7334z"/><path d="m446.862 0c.427 16.2555 13.35 29.3417 29.379 29.7334-.427-16.2554-13.35-29.341702-29.379-29.7334z"/><path d="m446.31 0c-.427 16.2555-13.35 29.3417-29.38 29.7334.428-16.2554 13.351-29.341702 29.38-29.7334z"/><path d="m446.862 60.6241c.427-16.2554 13.35-29.3417 29.379-29.7334-.427 16.2555-13.35 29.3417-29.379 29.7334z"/><path d="m446.31 60.6241c-.427-16.2554-13.35-29.3417-29.38-29.7334.428 16.2555 13.351 29.3417 29.38 29.7334z"/><path d="m29.9314 63.8734c.4272 16.2555 13.3503 29.3418 29.3796 29.7335-.4272-16.2555-13.3503-29.3418-29.3796-29.7335z"/><path d="m29.3796 63.8734c-.4272 16.2555-13.3503 29.3418-29.3796 29.7334.42721-16.2554 13.3503-29.3417 29.3796-29.7334z"/><path d="m29.9314 124.498c.4272-16.256 13.3503-29.3422 29.3796-29.7339-.4272 16.2559-13.3503 29.3419-29.3796 29.7339z"/><path d="m29.3796 124.498c-.4272-16.256-13.3503-29.3422-29.3796-29.7339.42721 16.2559 13.3503 29.3419 29.3796 29.7339z"/><path d="m89.2691 63.8734c.4273 16.2555 13.3499 29.3418 29.3799 29.7335-.427-16.2555-13.351-29.3418-29.3799-29.7335z"/><path d="m88.7173 63.8734c-.4272 16.2555-13.3503 29.3418-29.3796 29.7335.4272-16.2555 13.3503-29.3418 29.3796-29.7335z"/><path d="m89.2691 124.498c.4273-16.256 13.3499-29.3422 29.3799-29.7339-.427 16.2559-13.351 29.3419-29.3799 29.7339z"/><path d="m88.7173 124.498c-.4272-16.256-13.3503-29.3422-29.3796-29.7339.4272 16.2559 13.3503 29.3419 29.3796 29.7339z"/><path d="m148.598 63.8734c.427 16.2555 13.35 29.3418 29.38 29.7335-.428-16.2555-13.351-29.3418-29.38-29.7335z"/><path d="m148.046 63.8734c-.427 16.2555-13.35 29.3418-29.379 29.7335.427-16.2555 13.35-29.3418 29.379-29.7335z"/><path d="m148.598 124.498c.427-16.256 13.35-29.3422 29.38-29.7339-.428 16.2559-13.351 29.3419-29.38 29.7339z"/><path d="m148.046 124.498c-.427-16.256-13.35-29.3422-29.379-29.7339.427 16.2559 13.35 29.3419 29.379 29.7339z"/><path d="m207.936 63.8734c.427 16.2555 13.35 29.3418 29.379 29.7334-.427-16.2554-13.35-29.3417-29.379-29.7334z"/><path d="m207.384 63.8734c-.427 16.2555-13.35 29.3418-29.38 29.7334.428-16.2554 13.351-29.3417 29.38-29.7334z"/><path d="m207.936 124.498c.427-16.256 13.35-29.3422 29.379-29.7339-.427 16.2559-13.35 29.3419-29.379 29.7339z"/><path d="m207.384 124.498c-.427-16.256-13.35-29.3422-29.38-29.7339.428 16.2559 13.351 29.3419 29.38 29.7339z"/><path d="m268.857 63.8735c.428 16.2554 13.351 29.3417 29.38 29.7334-.427-16.2554-13.35-29.3417-29.38-29.7334z"/><path d="m268.315 63.8735c-.428 16.2554-13.351 29.3417-29.38 29.7334.427-16.2554 13.35-29.3417 29.38-29.7334z"/><path d="m268.857 124.498c.428-16.256 13.351-29.3421 29.38-29.7338-.427 16.2558-13.35 29.3418-29.38 29.7338z"/><path d="m268.315 124.498c-.428-16.256-13.351-29.3421-29.38-29.7338.427 16.2558 13.35 29.3418 29.38 29.7338z"/><path d="m328.195 63.8735c.427 16.2554 13.351 29.3417 29.38 29.7334-.427-16.2554-13.351-29.3417-29.38-29.7334z"/><path d="m327.643 63.8735c-.427 16.2554-13.35 29.3417-29.379 29.7334.427-16.2554 13.35-29.3417 29.379-29.7334z"/><path d="m328.195 124.498c.427-16.256 13.351-29.3421 29.38-29.7338-.427 16.2558-13.351 29.3418-29.38 29.7338z"/><path d="m327.643 124.498c-.427-16.256-13.35-29.3421-29.379-29.7338.427 16.2558 13.35 29.3418 29.379 29.7338z"/><path d="m387.524 63.8735c.427 16.2554 13.35 29.3417 29.38 29.7334-.428-16.2554-13.351-29.3417-29.38-29.7334z"/><path d="m386.981 63.8735c-.427 16.2554-13.35 29.3417-29.38 29.7334.428-16.2554 13.351-29.3417 29.38-29.7334z"/><path d="m387.524 124.498c.427-16.256 13.35-29.3421 29.38-29.7338-.428 16.2558-13.351 29.3418-29.38 29.7338z"/><path d="m386.981 124.498c-.427-16.256-13.35-29.3421-29.38-29.7338.428 16.2558 13.351 29.3418 29.38 29.7338z"/><path d="m446.862 63.8735c.427 16.2554 13.35 29.3417 29.379 29.7334-.427-16.2554-13.35-29.3417-29.379-29.7334z"/><path d="m446.31 63.8735c-.427 16.2554-13.35 29.3417-29.38 29.7334.428-16.2554 13.351-29.3417 29.38-29.7334z"/><path d="m446.862 124.498c.427-16.256 13.35-29.3421 29.379-29.7338-.427 16.2558-13.35 29.3418-29.379 29.7338z"/><path d="m446.31 124.498c-.427-16.256-13.35-29.3421-29.38-29.7338.428 16.2558 13.351 29.3418 29.38 29.7338z"/><path d="m29.9314 127.747c.4272 16.255 13.3503 29.342 29.3796 29.733-.4272-16.255-13.3503-29.341-29.3796-29.733z"/><path d="m29.3796 127.747c-.4272 16.255-13.3503 29.342-29.3796 29.733.42721-16.255 13.3503-29.341 29.3796-29.733z"/><path d="m29.9314 188.371c.4272-16.255 13.3503-29.342 29.3796-29.733-.4272 16.255-13.3503 29.341-29.3796 29.733z"/><path d="m29.3796 188.371c-.4272-16.255-13.3503-29.342-29.3796-29.733.42721 16.255 13.3503 29.341 29.3796 29.733z"/><path d="m89.2691 127.747c.4273 16.255 13.3499 29.342 29.3799 29.733-.427-16.255-13.351-29.341-29.3799-29.733z"/><path d="m88.7173 127.747c-.4272 16.255-13.3503 29.342-29.3796 29.733.4272-16.255 13.3503-29.341 29.3796-29.733z"/><path d="m89.2691 188.371c.4273-16.255 13.3499-29.342 29.3799-29.733-.427 16.255-13.351 29.341-29.3799 29.733z"/><path d="m88.7173 188.371c-.4272-16.255-13.3503-29.342-29.3796-29.733.4272 16.255 13.3503 29.341 29.3796 29.733z"/><path d="m148.598 127.747c.427 16.255 13.35 29.342 29.38 29.733-.428-16.255-13.351-29.341-29.38-29.733z"/><path d="m148.046 127.747c-.427 16.255-13.35 29.342-29.379 29.733.427-16.255 13.35-29.341 29.379-29.733z"/><path d="m148.598 188.371c.427-16.255 13.35-29.342 29.38-29.733-.428 16.255-13.351 29.341-29.38 29.733z"/><path d="m148.046 188.371c-.427-16.255-13.35-29.342-29.379-29.733.427 16.255 13.35 29.341 29.379 29.733z"/><path d="m207.936 127.747c.427 16.255 13.35 29.342 29.379 29.733-.427-16.255-13.35-29.341-29.379-29.733z"/><path d="m207.384 127.747c-.427 16.255-13.35 29.342-29.38 29.733.428-16.255 13.351-29.341 29.38-29.733z"/><path d="m207.936 188.371c.427-16.255 13.35-29.342 29.379-29.733-.427 16.255-13.35 29.341-29.379 29.733z"/><path d="m207.384 188.371c-.427-16.255-13.35-29.342-29.38-29.733.428 16.255 13.351 29.341 29.38 29.733z"/><path d="m268.857 127.747c.428 16.255 13.351 29.342 29.38 29.733-.427-16.255-13.35-29.341-29.38-29.733z"/><path d="m268.315 127.747c-.428 16.255-13.351 29.342-29.38 29.733.427-16.255 13.35-29.341 29.38-29.733z"/><path d="m268.857 188.371c.428-16.255 13.351-29.342 29.38-29.733-.427 16.255-13.35 29.341-29.38 29.733z"/><path d="m268.315 188.371c-.428-16.255-13.351-29.342-29.38-29.733.427 16.255 13.35 29.341 29.38 29.733z"/><path d="m328.195 127.747c.427 16.255 13.351 29.342 29.38 29.733-.427-16.255-13.351-29.341-29.38-29.733z"/><path d="m327.643 127.747c-.427 16.255-13.35 29.342-29.379 29.733.427-16.255 13.35-29.341 29.379-29.733z"/><path d="m328.195 188.371c.427-16.255 13.351-29.342 29.38-29.733-.427 16.255-13.351 29.341-29.38 29.733z"/><path d="m327.643 188.371c-.427-16.255-13.35-29.342-29.379-29.733.427 16.255 13.35 29.341 29.379 29.733z"/><path d="m387.524 127.747c.427 16.255 13.35 29.342 29.38 29.733-.428-16.255-13.351-29.341-29.38-29.733z"/><path d="m386.981 127.747c-.427 16.255-13.35 29.342-29.38 29.733.428-16.255 13.351-29.341 29.38-29.733z"/><path d="m387.524 188.371c.427-16.255 13.35-29.342 29.38-29.733-.428 16.255-13.351 29.341-29.38 29.733z"/><path d="m386.981 188.371c-.427-16.255-13.35-29.342-29.38-29.733.428 16.255 13.351 29.341 29.38 29.733z"/><path d="m446.862 127.747c.427 16.255 13.35 29.342 29.379 29.733-.427-16.255-13.35-29.341-29.379-29.733z"/><path d="m446.31 127.747c-.427 16.255-13.35 29.342-29.38 29.733.428-16.255 13.351-29.341 29.38-29.733z"/><path d="m446.862 188.371c.427-16.255 13.35-29.342 29.379-29.733-.427 16.255-13.35 29.341-29.379 29.733z"/><path d="m446.31 188.371c-.427-16.255-13.35-29.342-29.38-29.733.428 16.255 13.351 29.341 29.38 29.733z"/><path d="m29.9314 191.629c.4272 16.256 13.3503 29.342 29.3796 29.734-.4272-16.256-13.3503-29.342-29.3796-29.734z"/><path d="m29.3796 191.629c-.4272 16.256-13.3503 29.342-29.3796 29.734.42721-16.256 13.3503-29.342 29.3796-29.734z"/><path d="m29.9314 252.253c.4272-16.255 13.3503-29.341 29.3796-29.733-.4272 16.255-13.3503 29.342-29.3796 29.733z"/><path d="m29.3796 252.253c-.4272-16.255-13.3503-29.341-29.3796-29.733.42721 16.255 13.3503 29.342 29.3796 29.733z"/><path d="m89.2691 191.629c.4273 16.256 13.3499 29.342 29.3799 29.734-.427-16.256-13.351-29.342-29.3799-29.734z"/><path d="m88.7173 191.629c-.4272 16.256-13.3503 29.342-29.3796 29.734.4272-16.256 13.3503-29.342 29.3796-29.734z"/><path d="m89.2691 252.253c.4273-16.255 13.3499-29.341 29.3799-29.733-.427 16.255-13.351 29.342-29.3799 29.733z"/><path d="m88.7173 252.253c-.4272-16.255-13.3503-29.341-29.3796-29.733.4272 16.255 13.3503 29.342 29.3796 29.733z"/><path d="m148.598 191.629c.427 16.256 13.35 29.342 29.38 29.734-.428-16.256-13.351-29.342-29.38-29.734z"/><path d="m148.046 191.629c-.427 16.256-13.35 29.342-29.379 29.734.427-16.256 13.35-29.342 29.379-29.734z"/><path d="m148.598 252.253c.427-16.255 13.35-29.341 29.38-29.733-.428 16.255-13.351 29.342-29.38 29.733z"/><path d="m148.046 252.253c-.427-16.255-13.35-29.341-29.379-29.733.427 16.255 13.35 29.342 29.379 29.733z"/><path d="m207.936 191.629c.427 16.256 13.35 29.342 29.379 29.734-.427-16.256-13.35-29.342-29.379-29.734z"/><path d="m207.384 191.629c-.427 16.256-13.35 29.342-29.38 29.734.428-16.256 13.351-29.342 29.38-29.734z"/><path d="m207.936 252.253c.427-16.255 13.35-29.341 29.379-29.733-.427 16.255-13.35 29.342-29.379 29.733z"/><path d="m207.384 252.253c-.427-16.255-13.35-29.341-29.38-29.733.428 16.255 13.351 29.342 29.38 29.733z"/><path d="m268.857 191.629c.428 16.256 13.351 29.342 29.38 29.734-.427-16.256-13.35-29.342-29.38-29.734z"/><path d="m268.315 191.629c-.428 16.256-13.351 29.342-29.38 29.734.427-16.256 13.35-29.342 29.38-29.734z"/><path d="m268.857 252.253c.428-16.255 13.351-29.341 29.38-29.733-.427 16.255-13.35 29.342-29.38 29.733z"/><path d="m268.315 252.253c-.428-16.255-13.351-29.341-29.38-29.733.427 16.255 13.35 29.342 29.38 29.733z"/><path d="m328.195 191.629c.427 16.256 13.351 29.342 29.38 29.734-.427-16.256-13.351-29.342-29.38-29.734z"/><path d="m327.643 191.629c-.427 16.256-13.35 29.342-29.379 29.734.427-16.256 13.35-29.342 29.379-29.734z"/><path d="m328.195 252.253c.427-16.255 13.351-29.341 29.38-29.733-.427 16.255-13.351 29.342-29.38 29.733z"/><path d="m327.643 252.253c-.427-16.255-13.35-29.341-29.379-29.733.427 16.255 13.35 29.342 29.379 29.733z"/><path d="m387.524 191.629c.427 16.256 13.35 29.342 29.38 29.734-.428-16.256-13.351-29.342-29.38-29.734z"/><path d="m386.981 191.629c-.427 16.256-13.35 29.342-29.38 29.734.428-16.256 13.351-29.342 29.38-29.734z"/><path d="m387.524 252.253c.427-16.255 13.35-29.341 29.38-29.733-.428 16.255-13.351 29.342-29.38 29.733z"/><path d="m386.981 252.253c-.427-16.255-13.35-29.341-29.38-29.733.428 16.255 13.351 29.342 29.38 29.733z"/><path d="m446.862 191.629c.427 16.256 13.35 29.342 29.379 29.734-.427-16.256-13.35-29.342-29.379-29.734z"/><path d="m446.31 191.629c-.427 16.256-13.35 29.342-29.38 29.734.428-16.256 13.351-29.342 29.38-29.734z"/><path d="m446.862 252.253c.427-16.255 13.35-29.341 29.379-29.733-.427 16.255-13.35 29.342-29.379 29.733z"/><path d="m446.31 252.253c-.427-16.255-13.35-29.341-29.38-29.733.428 16.255 13.351 29.342 29.38 29.733z"/><path d="m29.9314 255.503c.4272 16.255 13.3503 29.341 29.3796 29.733-.4272-16.255-13.3503-29.342-29.3796-29.733z"/><path d="m29.3796 255.503c-.4272 16.255-13.3503 29.341-29.3796 29.733.42721-16.255 13.3503-29.342 29.3796-29.733z"/><path d="m29.9314 316.127c.4272-16.256 13.3503-29.342 29.3796-29.734-.4272 16.256-13.3503 29.342-29.3796 29.734z"/><path d="m29.3796 316.127c-.4272-16.256-13.3503-29.342-29.3796-29.734.42721 16.256 13.3503 29.342 29.3796 29.734z"/><path d="m89.2691 255.503c.4273 16.255 13.3499 29.341 29.3799 29.733-.427-16.255-13.351-29.342-29.3799-29.733z"/><path d="m88.7173 255.503c-.4272 16.255-13.3503 29.341-29.3796 29.733.4272-16.255 13.3503-29.342 29.3796-29.733z"/><path d="m89.2691 316.127c.4273-16.256 13.3499-29.342 29.3799-29.734-.427 16.256-13.351 29.342-29.3799 29.734z"/><path d="m88.7173 316.127c-.4272-16.256-13.3503-29.342-29.3796-29.734.4272 16.256 13.3503 29.342 29.3796 29.734z"/><path d="m148.598 255.503c.427 16.255 13.35 29.341 29.38 29.733-.428-16.255-13.351-29.342-29.38-29.733z"/><path d="m148.046 255.503c-.427 16.255-13.35 29.341-29.379 29.733.427-16.255 13.35-29.342 29.379-29.733z"/><path d="m148.598 316.127c.427-16.256 13.35-29.342 29.38-29.734-.428 16.256-13.351 29.342-29.38 29.734z"/><path d="m148.046 316.127c-.427-16.256-13.35-29.342-29.379-29.734.427 16.256 13.35 29.342 29.379 29.734z"/><path d="m207.936 255.503c.427 16.255 13.35 29.341 29.379 29.733-.427-16.255-13.35-29.342-29.379-29.733z"/><path d="m207.384 255.503c-.427 16.255-13.35 29.341-29.38 29.733.428-16.255 13.351-29.342 29.38-29.733z"/><path d="m207.936 316.127c.427-16.256 13.35-29.342 29.379-29.734-.427 16.256-13.35 29.342-29.379 29.734z"/><path d="m207.384 316.127c-.427-16.256-13.35-29.342-29.38-29.734.428 16.256 13.351 29.342 29.38 29.734z"/><path d="m268.857 255.503c.428 16.255 13.351 29.342 29.38 29.733-.427-16.255-13.35-29.341-29.38-29.733z"/><path d="m268.315 255.503c-.428 16.255-13.351 29.342-29.38 29.733.427-16.255 13.35-29.342 29.38-29.733z"/><path d="m268.857 316.127c.428-16.256 13.351-29.342 29.38-29.734-.427 16.256-13.35 29.342-29.38 29.734z"/><path d="m268.315 316.127c-.428-16.256-13.351-29.342-29.38-29.734.427 16.256 13.35 29.342 29.38 29.734z"/><path d="m328.195 255.503c.427 16.255 13.351 29.342 29.38 29.733-.427-16.255-13.351-29.341-29.38-29.733z"/><path d="m327.643 255.503c-.427 16.255-13.35 29.342-29.379 29.733.427-16.255 13.35-29.341 29.379-29.733z"/><path d="m328.195 316.127c.427-16.256 13.351-29.342 29.38-29.734-.427 16.256-13.351 29.342-29.38 29.734z"/><path d="m327.643 316.127c-.427-16.256-13.35-29.342-29.379-29.734.427 16.256 13.35 29.342 29.379 29.734z"/><path d="m387.524 255.503c.427 16.255 13.35 29.342 29.38 29.733-.428-16.255-13.351-29.341-29.38-29.733z"/><path d="m386.981 255.503c-.427 16.255-13.35 29.342-29.38 29.733.428-16.255 13.351-29.341 29.38-29.733z"/><path d="m387.524 316.127c.427-16.256 13.35-29.342 29.38-29.734-.428 16.256-13.351 29.342-29.38 29.734z"/><path d="m386.981 316.127c-.427-16.256-13.35-29.342-29.38-29.734.428 16.256 13.351 29.342 29.38 29.734z"/><path d="m446.862 255.503c.427 16.255 13.35 29.342 29.379 29.733-.427-16.255-13.35-29.341-29.379-29.733z"/><path d="m446.31 255.503c-.427 16.255-13.35 29.342-29.38 29.733.428-16.255 13.351-29.341 29.38-29.733z"/><path d="m446.862 316.127c.427-16.256 13.35-29.342 29.379-29.734-.427 16.256-13.35 29.342-29.379 29.734z"/><path d="m446.31 316.127c-.427-16.256-13.35-29.342-29.38-29.734.428 16.256 13.351 29.342 29.38 29.734z"/><path d="m29.9314 319.376c.4272 16.255 13.3503 29.342 29.3796 29.733-.4272-16.255-13.3503-29.341-29.3796-29.733z"/><path d="m29.3796 319.376c-.4272 16.255-13.3503 29.342-29.3796 29.733.42721-16.255 13.3503-29.341 29.3796-29.733z"/><path d="m29.9314 380c.4272-16.255 13.3503-29.342 29.3796-29.733-.4272 16.255-13.3503 29.341-29.3796 29.733z"/><path d="m29.3796 380c-.4272-16.255-13.3503-29.342-29.3796-29.733.42721 16.255 13.3503 29.341 29.3796 29.733z"/><path d="m89.2691 319.376c.4273 16.255 13.3499 29.342 29.3799 29.733-.427-16.255-13.351-29.341-29.3799-29.733z"/><path d="m88.7173 319.376c-.4272 16.255-13.3503 29.342-29.3796 29.733.4272-16.255 13.3503-29.341 29.3796-29.733z"/><path d="m89.2691 380c.4273-16.255 13.3499-29.342 29.3799-29.733-.427 16.255-13.351 29.341-29.3799 29.733z"/><path d="m88.7173 380c-.4272-16.255-13.3503-29.342-29.3796-29.733.4272 16.255 13.3503 29.341 29.3796 29.733z"/><path d="m148.598 319.376c.427 16.255 13.35 29.342 29.38 29.733-.428-16.255-13.351-29.341-29.38-29.733z"/><path d="m148.046 319.376c-.427 16.255-13.35 29.342-29.379 29.733.427-16.255 13.35-29.341 29.379-29.733z"/><path d="m148.598 380c.427-16.255 13.35-29.342 29.38-29.733-.428 16.255-13.351 29.341-29.38 29.733z"/><path d="m148.046 380c-.427-16.255-13.35-29.342-29.379-29.733.427 16.255 13.35 29.341 29.379 29.733z"/><path d="m207.936 319.376c.427 16.255 13.35 29.342 29.379 29.733-.427-16.255-13.35-29.341-29.379-29.733z"/><path d="m207.384 319.376c-.427 16.255-13.35 29.342-29.38 29.733.428-16.255 13.351-29.341 29.38-29.733z"/><path d="m207.936 380c.427-16.255 13.35-29.342 29.379-29.733-.427 16.255-13.35 29.341-29.379 29.733z"/><path d="m207.384 380c-.427-16.255-13.35-29.342-29.38-29.733.428 16.255 13.351 29.341 29.38 29.733z"/><path d="m268.857 319.376c.428 16.255 13.351 29.342 29.38 29.733-.427-16.255-13.35-29.341-29.38-29.733z"/><path d="m268.315 319.376c-.428 16.255-13.351 29.342-29.38 29.733.427-16.255 13.35-29.341 29.38-29.733z"/><path d="m268.857 380c.428-16.255 13.351-29.342 29.38-29.733-.427 16.255-13.35 29.341-29.38 29.733z"/><path d="m268.315 380c-.428-16.255-13.351-29.342-29.38-29.733.427 16.255 13.35 29.341 29.38 29.733z"/><path d="m328.195 319.376c.427 16.255 13.351 29.342 29.38 29.733-.427-16.255-13.35-29.341-29.38-29.733z"/><path d="m327.643 319.376c-.427 16.255-13.35 29.342-29.379 29.733.427-16.255 13.35-29.341 29.379-29.733z"/><path d="m328.195 380c.427-16.255 13.351-29.342 29.38-29.733-.427 16.255-13.35 29.341-29.38 29.733z"/><path d="m327.643 380c-.427-16.255-13.35-29.342-29.379-29.733.427 16.255 13.35 29.341 29.379 29.733z"/><path d="m387.524 319.376c.427 16.255 13.35 29.342 29.38 29.733-.427-16.255-13.351-29.341-29.38-29.733z"/><path d="m386.981 319.376c-.427 16.255-13.35 29.342-29.379 29.733.427-16.255 13.35-29.341 29.379-29.733z"/><path d="m387.524 380c.427-16.255 13.35-29.342 29.38-29.733-.427 16.255-13.351 29.341-29.38 29.733z"/><path d="m386.981 380c-.427-16.255-13.35-29.342-29.379-29.733.427 16.255 13.35 29.341 29.379 29.733z"/><path d="m446.862 319.376c.427 16.255 13.35 29.342 29.379 29.733-.427-16.255-13.35-29.341-29.379-29.733z"/><path d="m446.31 319.376c-.427 16.255-13.351 29.342-29.38 29.733.427-16.255 13.35-29.341 29.38-29.733z"/><path d="m446.862 380c.427-16.255 13.35-29.342 29.379-29.733-.427 16.255-13.35 29.341-29.379 29.733z"/><path d="m446.31 380c-.427-16.255-13.351-29.342-29.38-29.733.427 16.255 13.35 29.341 29.38 29.733z"/><path d="m507.873 0c.427 16.2555 13.35 29.3417 29.379 29.7334-.427-16.2554-13.35-29.341702-29.379-29.7334z"/><path d="m507.321 0c-.427 16.2555-13.35 29.3417-29.38 29.7334.427-16.2554 13.351-29.341702 29.38-29.7334z"/><path d="m507.873 60.6241c.427-16.2554 13.35-29.3417 29.379-29.7334-.427 16.2555-13.35 29.3417-29.379 29.7334z"/><path d="m507.321 60.6241c-.427-16.2554-13.35-29.3417-29.38-29.7334.427 16.2555 13.351 29.3417 29.38 29.7334z"/><path d="m507.873 63.8734c.427 16.2555 13.35 29.3418 29.379 29.7335-.427-16.2555-13.35-29.3418-29.379-29.7335z"/><path d="m507.321 63.8734c-.427 16.2555-13.35 29.3418-29.38 29.7334.427-16.2554 13.351-29.3417 29.38-29.7334z"/><path d="m507.873 124.498c.427-16.256 13.35-29.3422 29.379-29.7339-.427 16.2559-13.35 29.3419-29.379 29.7339z"/><path d="m507.321 124.498c-.427-16.256-13.35-29.3422-29.38-29.7339.427 16.2559 13.351 29.3419 29.38 29.7339z"/><path d="m507.873 127.747c.427 16.255 13.35 29.342 29.379 29.733-.427-16.255-13.35-29.341-29.379-29.733z"/><path d="m507.321 127.747c-.427 16.255-13.35 29.342-29.38 29.733.427-16.255 13.351-29.341 29.38-29.733z"/><path d="m507.873 188.371c.427-16.255 13.35-29.342 29.379-29.733-.427 16.255-13.35 29.341-29.379 29.733z"/><path d="m507.321 188.371c-.427-16.255-13.35-29.342-29.38-29.733.427 16.255 13.351 29.341 29.38 29.733z"/><path d="m507.873 191.629c.427 16.256 13.35 29.342 29.379 29.734-.427-16.256-13.35-29.342-29.379-29.734z"/><path d="m507.321 191.629c-.427 16.256-13.35 29.342-29.38 29.734.427-16.256 13.351-29.342 29.38-29.734z"/><path d="m507.873 252.253c.427-16.255 13.35-29.341 29.379-29.733-.427 16.255-13.35 29.342-29.379 29.733z"/><path d="m507.321 252.253c-.427-16.255-13.35-29.341-29.38-29.733.427 16.255 13.351 29.342 29.38 29.733z"/><path d="m507.873 255.503c.427 16.255 13.35 29.341 29.379 29.733-.427-16.255-13.35-29.342-29.379-29.733z"/><path d="m507.321 255.503c-.427 16.255-13.35 29.341-29.38 29.733.427-16.255 13.351-29.342 29.38-29.733z"/><path d="m507.873 316.127c.427-16.256 13.35-29.342 29.379-29.734-.427 16.256-13.35 29.342-29.379 29.734z"/><path d="m507.321 316.127c-.427-16.256-13.35-29.342-29.38-29.734.427 16.256 13.351 29.342 29.38 29.734z"/><path d="m507.873 319.376c.427 16.255 13.35 29.342 29.379 29.733-.427-16.255-13.35-29.341-29.379-29.733z"/><path d="m507.321 319.376c-.427 16.255-13.35 29.342-29.38 29.733.427-16.255 13.351-29.341 29.38-29.733z"/><path d="m507.873 380c.427-16.255 13.35-29.342 29.379-29.733-.427 16.255-13.35 29.341-29.379 29.733z"/><path d="m507.321 380c-.427-16.255-13.35-29.342-29.38-29.733.427 16.255 13.351 29.341 29.38 29.733z"/><path d="m568.688 0c.427 16.2555 13.35 29.3417 29.38 29.7334-.428-16.2554-13.351-29.341702-29.38-29.7334z"/><path d="m568.136 0c-.427 16.2555-13.35 29.3417-29.379 29.7334.427-16.2554 13.35-29.341702 29.379-29.7334z"/><path d="m568.688 60.6241c.427-16.2554 13.35-29.3417 29.38-29.7334-.428 16.2555-13.351 29.3417-29.38 29.7334z"/><path d="m568.136 60.6241c-.427-16.2554-13.35-29.3417-29.379-29.7334.427 16.2555 13.35 29.3417 29.379 29.7334z"/><path d="m628.017 0c.427 16.2555 13.35 29.3417 29.379 29.7334-.427-16.2554-13.35-29.341702-29.379-29.7334z"/><path d="m627.465 0c-.427 16.2555-13.35 29.3417-29.38 29.7334.428-16.2554 13.351-29.341702 29.38-29.7334z"/><path d="m628.017 60.6241c.427-16.2554 13.35-29.3417 29.379-29.7334-.427 16.2555-13.35 29.3417-29.379 29.7334z"/><path d="m627.465 60.6241c-.427-16.2554-13.35-29.3417-29.38-29.7334.428 16.2555 13.351 29.3417 29.38 29.7334z"/><path d="m687.354 0c.428 16.2555 13.351 29.3417 29.38 29.7334-.427-16.2554-13.35-29.341702-29.38-29.7334z"/><path d="m686.803 0c-.428 16.2555-13.351 29.3417-29.38 29.7334.427-16.2554 13.35-29.341702 29.38-29.7334z"/><path d="m687.354 60.6241c.428-16.2554 13.351-29.3417 29.38-29.7334-.427 16.2555-13.35 29.3417-29.38 29.7334z"/><path d="m686.803 60.6241c-.428-16.2554-13.351-29.3417-29.38-29.7334.427 16.2555 13.35 29.3417 29.38 29.7334z"/><path d="m746.683 0c.427 16.2555 13.351 29.3417 29.38 29.7334-.427-16.2554-13.35-29.341702-29.38-29.7334z"/><path d="m746.131 0c-.427 16.2555-13.35 29.3417-29.379 29.7334.427-16.2554 13.35-29.341702 29.379-29.7334z"/><path d="m746.683 60.6241c.427-16.2554 13.351-29.3417 29.38-29.7334-.427 16.2555-13.35 29.3417-29.38 29.7334z"/><path d="m746.131 60.6241c-.427-16.2554-13.35-29.3417-29.379-29.7334.427 16.2555 13.35 29.3417 29.379 29.7334z"/><path d="m807.614 0c.427 16.2555 13.35 29.3417 29.38 29.7334-.428-16.2554-13.351-29.341702-29.38-29.7334z"/><path d="m807.062 0c-.427 16.2555-13.35 29.3417-29.379 29.7334.427-16.2554 13.35-29.341702 29.379-29.7334z"/><path d="m807.614 60.6241c.427-16.2554 13.35-29.3417 29.38-29.7334-.428 16.2555-13.351 29.3417-29.38 29.7334z"/><path d="m807.062 60.6241c-.427-16.2554-13.35-29.3417-29.379-29.7334.427 16.2555 13.35 29.3417 29.379 29.7334z"/><path d="m866.943 0c.427 16.2555 13.35 29.3417 29.38 29.7334-.428-16.2554-13.351-29.341702-29.38-29.7334z"/><path d="m866.4 0c-.427 16.2555-13.35 29.3417-29.38 29.7334.428-16.2554 13.351-29.341702 29.38-29.7334z"/><path d="m866.943 60.6241c.427-16.2554 13.35-29.3417 29.38-29.7334-.428 16.2555-13.351 29.3417-29.38 29.7334z"/><path d="m866.4 60.6241c-.427-16.2554-13.35-29.3417-29.38-29.7334.428 16.2555 13.351 29.3417 29.38 29.7334z"/><path d="m926.281 0c.427 16.2555 13.35 29.3417 29.379 29.7334-.427-16.2554-13.35-29.341702-29.379-29.7334z"/><path d="m925.729 0c-.427 16.2555-13.35 29.3417-29.38 29.7334.427-16.2554 13.351-29.341702 29.38-29.7334z"/><path d="m926.281 60.6241c.427-16.2554 13.35-29.3417 29.379-29.7334-.427 16.2555-13.35 29.3417-29.379 29.7334z"/><path d="m925.729 60.6241c-.427-16.2554-13.35-29.3417-29.38-29.7334.427 16.2555 13.351 29.3417 29.38 29.7334z"/><path d="m985.609 0c.428 16.2555 13.351 29.3417 29.381 29.7334-.43-16.2554-13.35-29.341702-29.381-29.7334z"/><path d="m985.067 0c-.428 16.2555-13.351 29.3417-29.38 29.7334.427-16.2554 13.35-29.341702 29.38-29.7334z"/><path d="m985.609 60.6241c.428-16.2554 13.351-29.3417 29.381-29.7334-.43 16.2555-13.35 29.3417-29.381 29.7334z"/><path d="m985.067 60.6241c-.428-16.2554-13.351-29.3417-29.38-29.7334.427 16.2555 13.35 29.3417 29.38 29.7334z"/><path d="m568.688 63.8734c.427 16.2555 13.35 29.3418 29.38 29.7335-.428-16.2555-13.351-29.3418-29.38-29.7335z"/><path d="m568.136 63.8734c-.427 16.2555-13.35 29.3418-29.379 29.7334.427-16.2554 13.35-29.3417 29.379-29.7334z"/><path d="m568.688 124.498c.427-16.256 13.35-29.3422 29.38-29.7339-.428 16.2559-13.351 29.3419-29.38 29.7339z"/><path d="m568.136 124.498c-.427-16.256-13.35-29.3422-29.379-29.7339.427 16.2559 13.35 29.3419 29.379 29.7339z"/><path d="m628.017 63.8734c.427 16.2555 13.35 29.3418 29.379 29.7335-.427-16.2555-13.35-29.3418-29.379-29.7335z"/><path d="m627.465 63.8734c-.427 16.2555-13.35 29.3418-29.38 29.7335.428-16.2555 13.351-29.3418 29.38-29.7335z"/><path d="m628.017 124.498c.427-16.256 13.35-29.3422 29.379-29.7339-.427 16.2559-13.35 29.3419-29.379 29.7339z"/><path d="m627.465 124.498c-.427-16.256-13.35-29.3422-29.38-29.7339.428 16.2559 13.351 29.3419 29.38 29.7339z"/><path d="m687.354 63.8734c.428 16.2555 13.351 29.3418 29.38 29.7335-.427-16.2555-13.35-29.3418-29.38-29.7335z"/><path d="m686.803 63.8734c-.428 16.2555-13.351 29.3418-29.38 29.7335.427-16.2555 13.35-29.3418 29.38-29.7335z"/><path d="m687.354 124.498c.428-16.256 13.351-29.3422 29.38-29.7339-.427 16.2559-13.35 29.3419-29.38 29.7339z"/><path d="m686.803 124.498c-.428-16.256-13.351-29.3422-29.38-29.7339.427 16.2559 13.35 29.3419 29.38 29.7339z"/><path d="m746.683 63.8734c.427 16.2555 13.351 29.3418 29.38 29.7335-.427-16.2555-13.35-29.3418-29.38-29.7335z"/><path d="m746.131 63.8734c-.427 16.2555-13.35 29.3418-29.379 29.7335.427-16.2555 13.35-29.3418 29.379-29.7335z"/><path d="m746.683 124.498c.427-16.256 13.351-29.3422 29.38-29.7339-.427 16.2559-13.35 29.3419-29.38 29.7339z"/><path d="m746.131 124.498c-.427-16.256-13.35-29.3422-29.379-29.7339.427 16.2559 13.35 29.3419 29.379 29.7339z"/><path d="m807.614 63.8734c.427 16.2555 13.35 29.3418 29.38 29.7335-.428-16.2555-13.351-29.3418-29.38-29.7335z"/><path d="m807.062 63.8734c-.427 16.2555-13.35 29.3418-29.379 29.7334.427-16.2554 13.35-29.3417 29.379-29.7334z"/><path d="m807.614 124.498c.427-16.256 13.35-29.3422 29.38-29.7339-.428 16.2559-13.351 29.3419-29.38 29.7339z"/><path d="m807.062 124.498c-.427-16.256-13.35-29.3422-29.379-29.7339.427 16.2559 13.35 29.3419 29.379 29.7339z"/><path d="m866.943 63.8734c.427 16.2555 13.35 29.3418 29.38 29.7335-.428-16.2555-13.351-29.3418-29.38-29.7335z"/><path d="m866.4 63.8734c-.427 16.2555-13.35 29.3418-29.38 29.7335.428-16.2555 13.351-29.3418 29.38-29.7335z"/><path d="m866.943 124.498c.427-16.256 13.35-29.3422 29.38-29.7339-.428 16.2559-13.351 29.3419-29.38 29.7339z"/><path d="m866.4 124.498c-.427-16.256-13.35-29.3422-29.38-29.7339.428 16.2559 13.351 29.3419 29.38 29.7339z"/><path d="m926.281 63.8734c.427 16.2555 13.35 29.3418 29.379 29.7335-.427-16.2555-13.35-29.3418-29.379-29.7335z"/><path d="m925.729 63.8734c-.427 16.2555-13.35 29.3418-29.38 29.7335.427-16.2555 13.351-29.3418 29.38-29.7335z"/><path d="m926.281 124.498c.427-16.256 13.35-29.3422 29.379-29.7339-.427 16.2559-13.35 29.3419-29.379 29.7339z"/><path d="m925.729 124.498c-.427-16.256-13.35-29.3422-29.38-29.7339.427 16.2559 13.351 29.3419 29.38 29.7339z"/><path d="m985.609 63.8734c.428 16.2555 13.351 29.3418 29.381 29.7335-.43-16.2555-13.35-29.3418-29.381-29.7335z"/><path d="m985.067 63.8734c-.428 16.2555-13.351 29.3418-29.38 29.7335.427-16.2555 13.35-29.3418 29.38-29.7335z"/><path d="m985.609 124.498c.428-16.256 13.351-29.3422 29.381-29.7339-.43 16.2559-13.35 29.3419-29.381 29.7339z"/><path d="m985.067 124.498c-.428-16.256-13.351-29.3422-29.38-29.7339.427 16.2559 13.35 29.3419 29.38 29.7339z"/><path d="m568.688 127.747c.427 16.255 13.35 29.342 29.38 29.733-.428-16.255-13.351-29.341-29.38-29.733z"/><path d="m568.136 127.747c-.427 16.255-13.35 29.342-29.379 29.733.427-16.255 13.35-29.341 29.379-29.733z"/><path d="m568.688 188.371c.427-16.255 13.35-29.342 29.38-29.733-.428 16.255-13.351 29.341-29.38 29.733z"/><path d="m568.136 188.371c-.427-16.255-13.35-29.342-29.379-29.733.427 16.255 13.35 29.341 29.379 29.733z"/><path d="m628.017 127.747c.427 16.255 13.35 29.342 29.379 29.733-.427-16.255-13.35-29.341-29.379-29.733z"/><path d="m627.465 127.747c-.427 16.255-13.35 29.342-29.38 29.733.428-16.255 13.351-29.341 29.38-29.733z"/><path d="m628.017 188.371c.427-16.255 13.35-29.342 29.379-29.733-.427 16.255-13.35 29.341-29.379 29.733z"/><path d="m627.465 188.371c-.427-16.255-13.35-29.342-29.38-29.733.428 16.255 13.351 29.341 29.38 29.733z"/><path d="m687.354 127.747c.428 16.255 13.351 29.342 29.38 29.733-.427-16.255-13.35-29.341-29.38-29.733z"/><path d="m686.803 127.747c-.428 16.255-13.351 29.342-29.38 29.733.427-16.255 13.35-29.341 29.38-29.733z"/><path d="m687.354 188.371c.428-16.255 13.351-29.342 29.38-29.733-.427 16.255-13.35 29.341-29.38 29.733z"/><path d="m686.803 188.371c-.428-16.255-13.351-29.342-29.38-29.733.427 16.255 13.35 29.341 29.38 29.733z"/><path d="m746.683 127.747c.427 16.255 13.351 29.342 29.38 29.733-.427-16.255-13.35-29.341-29.38-29.733z"/><path d="m746.131 127.747c-.427 16.255-13.35 29.342-29.379 29.733.427-16.255 13.35-29.341 29.379-29.733z"/><path d="m746.683 188.371c.427-16.255 13.351-29.342 29.38-29.733-.427 16.255-13.35 29.341-29.38 29.733z"/><path d="m746.131 188.371c-.427-16.255-13.35-29.342-29.379-29.733.427 16.255 13.35 29.341 29.379 29.733z"/><path d="m807.614 127.747c.427 16.255 13.35 29.342 29.38 29.733-.428-16.255-13.351-29.341-29.38-29.733z"/><path d="m807.062 127.747c-.427 16.255-13.35 29.342-29.379 29.733.427-16.255 13.35-29.341 29.379-29.733z"/><path d="m807.614 188.371c.427-16.255 13.35-29.342 29.38-29.733-.428 16.255-13.351 29.341-29.38 29.733z"/><path d="m807.062 188.371c-.427-16.255-13.35-29.342-29.379-29.733.427 16.255 13.35 29.341 29.379 29.733z"/><path d="m866.943 127.747c.427 16.255 13.35 29.342 29.38 29.733-.428-16.255-13.351-29.341-29.38-29.733z"/><path d="m866.4 127.747c-.427 16.255-13.35 29.342-29.38 29.733.428-16.255 13.351-29.341 29.38-29.733z"/><path d="m866.943 188.371c.427-16.255 13.35-29.342 29.38-29.733-.428 16.255-13.351 29.341-29.38 29.733z"/><path d="m866.4 188.371c-.427-16.255-13.35-29.342-29.38-29.733.428 16.255 13.351 29.341 29.38 29.733z"/><path d="m926.281 127.747c.427 16.255 13.35 29.342 29.379 29.733-.427-16.255-13.35-29.341-29.379-29.733z"/><path d="m925.729 127.747c-.427 16.255-13.35 29.342-29.38 29.733.427-16.255 13.351-29.341 29.38-29.733z"/><path d="m926.281 188.371c.427-16.255 13.35-29.342 29.379-29.733-.427 16.255-13.35 29.341-29.379 29.733z"/><path d="m925.729 188.371c-.427-16.255-13.35-29.342-29.38-29.733.427 16.255 13.351 29.341 29.38 29.733z"/><path d="m985.609 127.747c.428 16.255 13.351 29.342 29.381 29.733-.43-16.255-13.35-29.341-29.381-29.733z"/><path d="m985.067 127.747c-.428 16.255-13.351 29.342-29.38 29.733.427-16.255 13.35-29.341 29.38-29.733z"/><path d="m985.609 188.371c.428-16.255 13.351-29.342 29.381-29.733-.43 16.255-13.35 29.341-29.381 29.733z"/><path d="m985.067 188.371c-.428-16.255-13.351-29.342-29.38-29.733.427 16.255 13.35 29.341 29.38 29.733z"/><path d="m568.688 191.629c.427 16.256 13.35 29.342 29.38 29.734-.428-16.256-13.351-29.342-29.38-29.734z"/><path d="m568.136 191.629c-.427 16.256-13.35 29.342-29.379 29.734.427-16.256 13.35-29.342 29.379-29.734z"/><path d="m568.688 252.253c.427-16.255 13.35-29.341 29.38-29.733-.428 16.255-13.351 29.342-29.38 29.733z"/><path d="m568.136 252.253c-.427-16.255-13.35-29.341-29.379-29.733.427 16.255 13.35 29.342 29.379 29.733z"/><path d="m628.017 191.629c.427 16.256 13.35 29.342 29.379 29.734-.427-16.256-13.35-29.342-29.379-29.734z"/><path d="m627.465 191.629c-.427 16.256-13.35 29.342-29.38 29.734.428-16.256 13.351-29.342 29.38-29.734z"/><path d="m628.017 252.253c.427-16.255 13.35-29.341 29.379-29.733-.427 16.255-13.35 29.342-29.379 29.733z"/><path d="m627.465 252.253c-.427-16.255-13.35-29.341-29.38-29.733.428 16.255 13.351 29.342 29.38 29.733z"/><path d="m687.354 191.629c.428 16.256 13.351 29.342 29.38 29.734-.427-16.256-13.35-29.342-29.38-29.734z"/><path d="m686.803 191.629c-.428 16.256-13.351 29.342-29.38 29.734.427-16.256 13.35-29.342 29.38-29.734z"/><path d="m687.354 252.253c.428-16.255 13.351-29.341 29.38-29.733-.427 16.255-13.35 29.342-29.38 29.733z"/><path d="m686.803 252.253c-.428-16.255-13.351-29.341-29.38-29.733.427 16.255 13.35 29.342 29.38 29.733z"/><path d="m746.683 191.629c.427 16.256 13.351 29.342 29.38 29.734-.427-16.256-13.35-29.342-29.38-29.734z"/><path d="m746.131 191.629c-.427 16.256-13.35 29.342-29.379 29.734.427-16.256 13.35-29.342 29.379-29.734z"/><path d="m746.683 252.253c.427-16.255 13.351-29.341 29.38-29.733-.427 16.255-13.35 29.342-29.38 29.733z"/><path d="m746.131 252.253c-.427-16.255-13.35-29.341-29.379-29.733.427 16.255 13.35 29.342 29.379 29.733z"/><path d="m807.614 191.629c.427 16.256 13.35 29.342 29.38 29.734-.428-16.256-13.351-29.342-29.38-29.734z"/><path d="m807.062 191.629c-.427 16.256-13.35 29.342-29.379 29.734.427-16.256 13.35-29.342 29.379-29.734z"/><path d="m807.614 252.253c.427-16.255 13.35-29.341 29.38-29.733-.428 16.255-13.351 29.342-29.38 29.733z"/><path d="m807.062 252.253c-.427-16.255-13.35-29.341-29.379-29.733.427 16.255 13.35 29.342 29.379 29.733z"/><path d="m866.943 191.629c.427 16.256 13.35 29.342 29.38 29.734-.428-16.256-13.351-29.342-29.38-29.734z"/><path d="m866.4 191.629c-.427 16.256-13.35 29.342-29.38 29.734.428-16.256 13.351-29.342 29.38-29.734z"/><path d="m866.943 252.253c.427-16.255 13.35-29.341 29.38-29.733-.428 16.255-13.351 29.342-29.38 29.733z"/><path d="m866.4 252.253c-.427-16.255-13.35-29.341-29.38-29.733.428 16.255 13.351 29.342 29.38 29.733z"/><path d="m926.281 191.629c.427 16.256 13.35 29.342 29.379 29.734-.427-16.256-13.35-29.342-29.379-29.734z"/><path d="m925.729 191.629c-.427 16.256-13.35 29.342-29.38 29.734.427-16.256 13.351-29.342 29.38-29.734z"/><path d="m926.281 252.253c.427-16.255 13.35-29.341 29.379-29.733-.427 16.255-13.35 29.342-29.379 29.733z"/><path d="m925.729 252.253c-.427-16.255-13.35-29.341-29.38-29.733.427 16.255 13.351 29.342 29.38 29.733z"/><path d="m985.609 191.629c.428 16.256 13.351 29.342 29.381 29.734-.43-16.256-13.35-29.342-29.381-29.734z"/><path d="m985.067 191.629c-.428 16.256-13.351 29.342-29.38 29.734.427-16.256 13.35-29.342 29.38-29.734z"/><path d="m985.609 252.253c.428-16.255 13.351-29.341 29.381-29.733-.43 16.255-13.35 29.342-29.381 29.733z"/><path d="m985.067 252.253c-.428-16.255-13.351-29.341-29.38-29.733.427 16.255 13.35 29.342 29.38 29.733z"/><path d="m568.688 255.503c.427 16.255 13.35 29.341 29.38 29.733-.428-16.255-13.351-29.342-29.38-29.733z"/><path d="m568.136 255.503c-.427 16.255-13.35 29.341-29.379 29.733.427-16.255 13.35-29.342 29.379-29.733z"/><path d="m568.688 316.127c.427-16.256 13.35-29.342 29.38-29.734-.428 16.256-13.351 29.342-29.38 29.734z"/><path d="m568.136 316.127c-.427-16.256-13.35-29.342-29.379-29.734.427 16.256 13.35 29.342 29.379 29.734z"/><path d="m628.017 255.503c.427 16.255 13.35 29.341 29.379 29.733-.427-16.255-13.35-29.342-29.379-29.733z"/><path d="m627.465 255.503c-.427 16.255-13.35 29.341-29.38 29.733.428-16.255 13.351-29.342 29.38-29.733z"/><path d="m628.017 316.127c.427-16.256 13.35-29.342 29.379-29.734-.427 16.256-13.35 29.342-29.379 29.734z"/><path d="m627.465 316.127c-.427-16.256-13.35-29.342-29.38-29.734.428 16.256 13.351 29.342 29.38 29.734z"/><path d="m687.354 255.503c.428 16.255 13.351 29.341 29.38 29.733-.427-16.255-13.35-29.342-29.38-29.733z"/><path d="m686.803 255.503c-.428 16.255-13.351 29.341-29.38 29.733.427-16.255 13.35-29.342 29.38-29.733z"/><path d="m687.354 316.127c.428-16.256 13.351-29.342 29.38-29.734-.427 16.256-13.35 29.342-29.38 29.734z"/><path d="m686.803 316.127c-.428-16.256-13.351-29.342-29.38-29.734.427 16.256 13.35 29.342 29.38 29.734z"/><path d="m746.683 255.503c.427 16.255 13.351 29.341 29.38 29.733-.427-16.255-13.35-29.342-29.38-29.733z"/><path d="m746.131 255.503c-.427 16.255-13.35 29.341-29.379 29.733.427-16.255 13.35-29.342 29.379-29.733z"/><path d="m746.683 316.127c.427-16.256 13.351-29.342 29.38-29.734-.427 16.256-13.35 29.342-29.38 29.734z"/><path d="m746.131 316.127c-.427-16.256-13.35-29.342-29.379-29.734.427 16.256 13.35 29.342 29.379 29.734z"/><path d="m807.614 255.503c.427 16.255 13.35 29.341 29.38 29.733-.428-16.255-13.351-29.342-29.38-29.733z"/><path d="m807.062 255.503c-.427 16.255-13.35 29.341-29.379 29.733.427-16.255 13.35-29.342 29.379-29.733z"/><path d="m807.614 316.127c.427-16.256 13.35-29.342 29.38-29.734-.428 16.256-13.351 29.342-29.38 29.734z"/><path d="m807.062 316.127c-.427-16.256-13.35-29.342-29.379-29.734.427 16.256 13.35 29.342 29.379 29.734z"/><path d="m866.943 255.503c.427 16.255 13.35 29.341 29.38 29.733-.428-16.255-13.351-29.342-29.38-29.733z"/><path d="m866.4 255.503c-.427 16.255-13.35 29.341-29.38 29.733.428-16.255 13.351-29.342 29.38-29.733z"/><path d="m866.943 316.127c.427-16.256 13.35-29.342 29.38-29.734-.428 16.256-13.351 29.342-29.38 29.734z"/><path d="m866.4 316.127c-.427-16.256-13.35-29.342-29.38-29.734.428 16.256 13.351 29.342 29.38 29.734z"/><path d="m926.281 255.503c.427 16.255 13.35 29.341 29.379 29.733-.427-16.255-13.35-29.342-29.379-29.733z"/><path d="m925.729 255.503c-.427 16.255-13.35 29.341-29.38 29.733.427-16.255 13.351-29.342 29.38-29.733z"/><path d="m926.281 316.127c.427-16.256 13.35-29.342 29.379-29.734-.427 16.256-13.35 29.342-29.379 29.734z"/><path d="m925.729 316.127c-.427-16.256-13.35-29.342-29.38-29.734.427 16.256 13.351 29.342 29.38 29.734z"/><path d="m985.609 255.503c.428 16.255 13.351 29.341 29.381 29.733-.43-16.255-13.35-29.342-29.381-29.733z"/><path d="m985.067 255.503c-.428 16.255-13.351 29.341-29.38 29.733.427-16.255 13.35-29.342 29.38-29.733z"/><path d="m985.609 316.127c.428-16.256 13.351-29.342 29.381-29.734-.43 16.256-13.35 29.342-29.381 29.734z"/><path d="m985.067 316.127c-.428-16.256-13.351-29.342-29.38-29.734.427 16.256 13.35 29.342 29.38 29.734z"/><path d="m568.688 319.376c.427 16.255 13.35 29.342 29.38 29.733-.428-16.255-13.351-29.341-29.38-29.733z"/><path d="m568.136 319.376c-.427 16.255-13.35 29.342-29.379 29.733.427-16.255 13.35-29.341 29.379-29.733z"/><path d="m568.688 380c.427-16.255 13.35-29.342 29.38-29.733-.428 16.255-13.351 29.341-29.38 29.733z"/><path d="m568.136 380c-.427-16.255-13.35-29.342-29.379-29.733.427 16.255 13.35 29.341 29.379 29.733z"/><path d="m628.017 319.376c.427 16.255 13.35 29.342 29.379 29.733-.427-16.255-13.35-29.341-29.379-29.733z"/><path d="m627.465 319.376c-.427 16.255-13.35 29.342-29.38 29.733.428-16.255 13.351-29.341 29.38-29.733z"/><path d="m628.017 380c.427-16.255 13.35-29.342 29.379-29.733-.427 16.255-13.35 29.341-29.379 29.733z"/><path d="m627.465 380c-.427-16.255-13.35-29.342-29.38-29.733.428 16.255 13.351 29.341 29.38 29.733z"/><path d="m687.354 319.376c.428 16.255 13.351 29.342 29.38 29.733-.427-16.255-13.35-29.341-29.38-29.733z"/><path d="m686.803 319.376c-.428 16.255-13.351 29.342-29.38 29.733.427-16.255 13.35-29.341 29.38-29.733z"/><path d="m687.354 380c.428-16.255 13.351-29.342 29.38-29.733-.427 16.255-13.35 29.341-29.38 29.733z"/><path d="m686.803 380c-.428-16.255-13.351-29.342-29.38-29.733.427 16.255 13.35 29.341 29.38 29.733z"/><path d="m746.683 319.376c.427 16.255 13.351 29.342 29.38 29.733-.427-16.255-13.35-29.341-29.38-29.733z"/><path d="m746.131 319.376c-.427 16.255-13.35 29.342-29.379 29.733.427-16.255 13.35-29.341 29.379-29.733z"/><path d="m746.683 380c.427-16.255 13.351-29.342 29.38-29.733-.427 16.255-13.35 29.341-29.38 29.733z"/><path d="m746.131 380c-.427-16.255-13.35-29.342-29.379-29.733.427 16.255 13.35 29.341 29.379 29.733z"/><path d="m807.614 319.376c.427 16.255 13.35 29.342 29.38 29.733-.428-16.255-13.351-29.341-29.38-29.733z"/><path d="m807.062 319.376c-.427 16.255-13.35 29.342-29.379 29.733.427-16.255 13.35-29.341 29.379-29.733z"/><path d="m807.614 380c.427-16.255 13.35-29.342 29.38-29.733-.428 16.255-13.351 29.341-29.38 29.733z"/><path d="m807.062 380c-.427-16.255-13.35-29.342-29.379-29.733.427 16.255 13.35 29.341 29.379 29.733z"/><path d="m866.943 319.376c.427 16.255 13.35 29.342 29.38 29.733-.428-16.255-13.351-29.341-29.38-29.733z"/><path d="m866.4 319.376c-.427 16.255-13.35 29.342-29.379 29.733.427-16.255 13.35-29.341 29.379-29.733z"/><path d="m866.943 380c.427-16.255 13.35-29.342 29.38-29.733-.428 16.255-13.351 29.341-29.38 29.733z"/><path d="m866.4 380c-.427-16.255-13.35-29.342-29.379-29.733.427 16.255 13.35 29.341 29.379 29.733z"/><path d="m926.281 319.376c.427 16.255 13.35 29.342 29.379 29.733-.427-16.255-13.35-29.341-29.379-29.733z"/><path d="m925.729 319.376c-.427 16.255-13.35 29.342-29.38 29.733.427-16.255 13.351-29.341 29.38-29.733z"/><path d="m926.281 380c.427-16.255 13.35-29.342 29.379-29.733-.427 16.255-13.35 29.341-29.379 29.733z"/><path d="m925.729 380c-.427-16.255-13.35-29.342-29.38-29.733.427 16.255 13.351 29.341 29.38 29.733z"/><path d="m985.609 319.376c.428 16.255 13.351 29.342 29.381 29.733-.43-16.255-13.35-29.341-29.381-29.733z"/><path d="m985.067 319.376c-.428 16.255-13.351 29.342-29.38 29.733.427-16.255 13.35-29.341 29.38-29.733z"/><path d="m985.609 380c.428-16.255 13.351-29.342 29.381-29.733-.43 16.255-13.35 29.341-29.381 29.733z"/><path d="m985.067 380c-.428-16.255-13.351-29.342-29.38-29.733.427 16.255 13.35 29.341 29.38 29.733z"/><path d="m1046.62 0c.43 16.2555 13.35 29.3417 29.38 29.7334-.43-16.2554-13.35-29.341702-29.38-29.7334z"/><path d="m1046.07 0c-.43 16.2555-13.35 29.3417-29.38 29.7334.43-16.2554 13.35-29.341702 29.38-29.7334z"/><path d="m1046.62 60.6241c.43-16.2554 13.35-29.3417 29.38-29.7334-.43 16.2555-13.35 29.3417-29.38 29.7334z"/><path d="m1046.07 60.6241c-.43-16.2554-13.35-29.3417-29.38-29.7334.43 16.2555 13.35 29.3417 29.38 29.7334z"/><path d="m1046.62 63.8734c.43 16.2555 13.35 29.3418 29.38 29.7335-.43-16.2555-13.35-29.3418-29.38-29.7335z"/><path d="m1046.07 63.8734c-.43 16.2555-13.35 29.3418-29.38 29.7334.43-16.2554 13.35-29.3417 29.38-29.7334z"/><path d="m1046.62 124.498c.43-16.256 13.35-29.3422 29.38-29.7339-.43 16.2559-13.35 29.3419-29.38 29.7339z"/><path d="m1046.07 124.498c-.43-16.256-13.35-29.3422-29.38-29.7339.43 16.2559 13.35 29.3419 29.38 29.7339z"/><path d="m1046.62 127.747c.43 16.255 13.35 29.342 29.38 29.733-.43-16.255-13.35-29.341-29.38-29.733z"/><path d="m1046.07 127.747c-.43 16.255-13.35 29.342-29.38 29.733.43-16.255 13.35-29.341 29.38-29.733z"/><path d="m1046.62 188.371c.43-16.255 13.35-29.342 29.38-29.733-.43 16.255-13.35 29.341-29.38 29.733z"/><path d="m1046.07 188.371c-.43-16.255-13.35-29.342-29.38-29.733.43 16.255 13.35 29.341 29.38 29.733z"/><path d="m1046.62 191.629c.43 16.256 13.35 29.342 29.38 29.734-.43-16.256-13.35-29.342-29.38-29.734z"/><path d="m1046.07 191.629c-.43 16.256-13.35 29.342-29.38 29.734.43-16.256 13.35-29.342 29.38-29.734z"/><path d="m1046.62 252.253c.43-16.255 13.35-29.341 29.38-29.733-.43 16.255-13.35 29.342-29.38 29.733z"/><path d="m1046.07 252.253c-.43-16.255-13.35-29.341-29.38-29.733.43 16.255 13.35 29.342 29.38 29.733z"/><path d="m1046.62 255.503c.43 16.255 13.35 29.341 29.38 29.733-.43-16.255-13.35-29.342-29.38-29.733z"/><path d="m1046.07 255.503c-.43 16.255-13.35 29.341-29.38 29.733.43-16.255 13.35-29.342 29.38-29.733z"/><path d="m1046.62 316.127c.43-16.256 13.35-29.342 29.38-29.734-.43 16.256-13.35 29.342-29.38 29.734z"/><path d="m1046.07 316.127c-.43-16.256-13.35-29.342-29.38-29.734.43 16.256 13.35 29.342 29.38 29.734z"/><path d="m1046.62 319.376c.43 16.255 13.35 29.342 29.38 29.733-.43-16.255-13.35-29.341-29.38-29.733z"/><path d="m1046.07 319.376c-.43 16.255-13.35 29.342-29.38 29.733.43-16.255 13.35-29.341 29.38-29.733z"/><path d="m1046.62 380c.43-16.255 13.35-29.342 29.38-29.733-.43 16.255-13.35 29.341-29.38 29.733z"/><path d="m1046.07 380c-.43-16.255-13.35-29.342-29.38-29.733.43 16.255 13.35 29.341 29.38 29.733z"/></g></svg>