<svg fill="none" height="79" viewBox="0 0 348 79" width="348" xmlns="http://www.w3.org/2000/svg"><path d="m36.3138 32.4519c-.8568 1.66-1.7136 3.2933-2.5704 4.8998-.8033 1.6066-1.6601 3.2398-2.5704 4.8999 2.8917-.8568 5.7566-1.6333 8.5948-2.3294 2.8917-.7497 5.8102-1.4191 8.7555-2.0082l-.8033-4.0966c-.1071-.2677-.1339-.5623-.0803-.8836.0535-.3213.1874-.6158.4016-.8835l1.8475-2.2492c-2.3027.3213-4.6053.723-6.908 1.2049-2.3027.4284-4.525.9104-6.667 1.4459zm-7.6309 22.0895c1.1245-.7497 2.3562-1.312 3.6949-1.6868 1.3388-.3749 2.6776-.6159 4.0163-.723.8568-.0535 1.6333.0536 2.3295.3213.6961.2678 1.3655.6694 2.0081 1.2049.4284.4284.7765.9104 1.0442 1.4459.3213.5355.5088 1.071.5623 1.6065 0 .4284-.0535.83-.1606 1.2049-.1071.3213-.2678.6426-.482.9639-.3213.3748-.6694.7229-1.0442 1.0442-.3749.2678-.7765.482-1.2049.6426-.5891.2142-1.2049.2678-1.8475.1607-.6426-.1607-1.2049-.482-1.6868-.9639-1.0175-1.1246-2.142-2.1153-3.3737-2.9721-1.2317-.9103-2.5169-1.66-3.8556-2.2491zm22.0092-24.8206c1.1781.482 2.3294 1.0443 3.454 1.6869 1.1245.589 2.2223 1.2316 3.2933 1.9278.482.3213.8568.7497 1.1246 1.2852.3213.4819.4819 1.0174.4819 1.6065 1.4994-.2678 2.9988-.482 4.4982-.6426 1.553-.2142 3.106-.3749 4.6589-.482.5355-.0535 1.071 0 1.6065.1607.5891.1071 1.1246.2945 1.6065.5623 1.1782.6426 2.2759 1.419 3.2934 2.3294 1.071.9104 2.0081 1.8743 2.8114 2.8917.2142.3213.2945.6694.241 1.0443 0 .3213-.0804.6426-.241.9639-.4284.4819-.9104.9103-1.4459 1.2852-.5355.3213-1.0978.5622-1.6868.7229-2.4633-.4284-4.9534-.7497-7.4703-.9639-2.5168-.2678-5.0337-.4284-7.5506-.482 0 2.1956.1071 4.3912.3213 6.5867.2142 2.1956.5623 4.3644 1.0443 6.5064.3748 2.7311.4016 5.4354.0803 8.1129-.3213 2.6239-1.0175 5.1676-2.0885 7.6309-.589 1.2317-1.3655 2.3027-2.3294 3.213-.9104.9104-1.9814 1.6065-3.213 2.0885-.8569.3748-1.7404.5087-2.6508.4016-.9103-.1071-1.7404-.4284-2.4901-.9639-2.0349-1.7672-4.1501-3.454-6.3457-5.0605-2.142-1.6065-4.3643-3.1327-6.667-4.5786-.8033-.4284-1.553-.9371-2.2491-1.5261-.6962-.6426-1.3388-1.3656-1.9278-2.1688 2.7846 1.071 5.6227 1.8475 8.5145 2.3294 2.9452.482 5.8905.6962 8.8358.6426.6426-3.8021 1.071-7.6309 1.2852-11.4865.2142-3.8557.1874-7.6845-.0803-11.4866-3.6415.2142-7.2561.6426-10.844 1.2852-3.5343.5891-7.0686 1.3656-10.603 2.3295-2.5704 4.2304-5.4085 8.327-8.5145 12.2898-3.1059 3.9091-6.426 7.6577-9.96033 11.2455-.5355.5891-1.20488.9907-2.00814 1.2049-.80325.2142-1.60651.1874-2.40976-.0803-.74971-.2142-1.47264-.5087-2.16879-.8836-.69616-.3748-1.33876-.83-1.927814-1.3655l.642604-1.1246c1.66006-.4284 3.18625-1.1245 4.57856-2.0884 1.3923-1.0175 2.54364-2.2492 3.45399-3.695 1.49938-1.9814 2.97208-3.9895 4.41788-6.0244 1.4994-2.0349 2.8917-4.1234 4.177-6.2654-2.4634.9639-4.9267 2.0349-7.39 3.213-2.40976 1.1246-4.79275 2.383-7.14897 3.7753-.1071.1071-.24097.1607-.40162.1607-.1071 0-.2142-.0268-.32131-.0804-.1071-.0535-.18742-.1338-.24097-.2409 0-.1607.02677-.2946.08032-.4017.26776-.589.53551-1.1513.80326-1.6868.26775-.5891.50873-1.1781.72293-1.7672.16065-.3748.40163-.6961.72293-.9639.37485-.3213.7497-.5355 1.12456-.6426 2.51686-1.1781 5.00697-2.2759 7.47027-3.2933 2.5169-1.071 5.0337-2.1153 7.5506-3.1327.9639-1.7136 1.8743-3.4272 2.7311-5.1409.9103-1.7136 1.7939-3.4807 2.6507-5.3014-2.6775.8568-5.3015 1.7939-7.8719 2.8113-2.5704 1.0175-5.1141 2.1421-7.6309 3.3737l-.5623-.3213c.1071-.4819.1874-.9371.241-1.3655.0535-.482.0535-.9639 0-1.4459-.0536-.3213-.0268-.6426.0803-.9639.1071-.3748.2945-.6694.5623-.8836.9639-.3748 1.9546-.6961 2.972-.9639 1.0175-.3213 2.0349-.5355 3.0524-.6426l11.4865-4.9802.964-2.49c-2.4098.2677-4.8464.4551-7.3097.5622-2.4097.1071-4.8195.1071-7.2293 0-.1071 0-.1874-.0267-.2409-.0803-.0536-.0535-.0804-.1071-.0804-.1606-.0535-.1071-.0803-.1875-.0803-.241.0536-.0536.1071-.0803.1607-.0803l1.6065-1.5262c.1606-.1607.348-.2678.5622-.3213.2142-.1071.4285-.1607.6427-.1607 2.2491-.2142 4.4982-.5087 6.7473-.8836 2.3027-.3748 4.5786-.8568 6.8277-1.4458l1.7671-6.0244-4.2572 1.2048c-2.0885-.0535-4.1502-.3213-6.1851-.8032-1.9814-.482-3.8824-1.1513-5.7031-2.0081-.3749-.1607-.6158-.4285-.7229-.8033-.0536-.3749 0-.6962.1606-.9639.2678-.3213.5355-.6426.8033-.9639.2677-.3213.5355-.6158.8032-.8836 2.8917 0 5.7567-.1339 8.5949-.4016 2.8381-.3213 5.6495-.723 8.4341-1.2049l.3213-1.76717c.1607-.48195.1339-.96391-.0803-1.44586s-.5087-.83003-.8836-1.04423c-.4284-.26775-.7497-.61583-.9639-1.04423s-.3213-.88358-.3213-1.36554c.0536-.26775.1339-.50872.241-.72293.1071-.2142.2678-.40162.482-.56227.4819-.32131.9639-.58906 1.4458-.80326.482-.2142.9639-.374852 1.4459-.481952.4819-.107101.9103-.107101 1.2852 0 .4284.05355.83.187422 1.2049.401632.8568.4284 1.7404.8568 2.6507 1.2852.9639.37486 1.9278.72293 2.8917 1.04424.3749.16065.6426.40162.8033.72293.1606.3213.1874.66937.0803 1.04423l-.4016 2.08846c1.0174-.2142 2.0081-.50873 2.972-.88358 1.0175-.37485 2.0082-.74971 2.9721-1.12456.589-.3213 1.2049-.48195 1.8475-.48195.6961-.05355 1.3655.02677 2.0081.24098 1.1781.4284 2.2759 1.04423 3.2933 1.84748 1.0175.74971 1.8743 1.63329 2.5705 2.65075.1606.26775.1606.53553 0 .80323-.1071.2678-.2678.4284-.482.482-2.9453.5355-5.8638 1.0978-8.7555 1.6868-2.8917.5891-5.7566 1.2317-8.5948 1.9278l-1.8475 5.4622c1.0175-.3749 2.0617-.7765 3.1327-1.2049 1.071-.482 2.1152-.9104 3.1327-1.2852.4819-.2142.9639-.3213 1.4459-.3213.4819 0 .9103.1071 1.2852.3213.6961.3748 1.3119.83 1.8474 1.3655.5891.482 1.1246 1.0442 1.6066 1.6868.1606.2142.1874.4284.0803.6426-.0536.1607-.2142.2678-.482.3213-1.4994.5891-3.0256 1.1246-4.5785 1.6066-1.4994.4819-3.0256.9371-4.5786 1.3655l-5.7031 2.8114-1.2049 2.731c3.1595-.9103 6.319-1.901 9.4784-2.972 3.2131-1.071 6.3725-2.1956 9.4785-3.3737.6426-.2677 1.2852-.3748 1.9278-.3213.6426.0536 1.2316.2678 1.7671.6426.8033.482 1.6065 1.0443 2.4098 1.6869.8032.589 1.5797 1.2049 2.3294 1.8475.0536.0535.1071.1338.1607.2409.0535.1071.0803.2142.0803.3213s-.0535.2142-.1606.3213c-.0536.0536-.1339.1071-.241.1607-2.3562.0535-4.6857.1606-6.9883.3213-2.3027.1606-4.6054.4016-6.908.7229zm50.8809 15.9045c.108 1.66.402 3.3201.884 4.9802.482 1.66 1.125 3.213 1.928 4.6588.589-.3748 1.232-.7497 1.928-1.1245.696-.3749 1.392-.6962 2.088-.9639 1.767-1.9814 3.401-4.0163 4.9-6.1048 1.553-2.142 2.972-4.3643 4.257-6.667-2.838.2142-5.623.7497-8.354 1.6065-2.677.8568-5.221 2.0617-7.631 3.6147zm-5.4617-30.2024c.2678-.5355.5891-1.0175.9639-1.4459.4284-.4819.9104-.9103 1.4459-1.2852.3748-.3213.8033-.5623 1.2852-.7229.4817-.2142.9367-.4284 1.3657-.6426 6.158-2.03494 12.343-3.9092 18.555-5.62281 6.265-1.71361 12.558-3.2398 18.877-4.57856.749-.160647 1.499-.214197 2.249-.160647.749 0 1.499.133877 2.249.401627 2.57.80326 5.087 1.79394 7.55 2.97205 2.464 1.1781 4.873 2.51686 7.23 4.01627.535.4284 1.044.91036 1.526 1.44586.482.53551.883 1.15131 1.205 1.84751.214.3748.321.8032.321 1.2852.054.4284 0 .83-.161 1.2049l-.642 2.0081c-.161.9639-.268 1.901-.322 2.8114 0 .9104.027 1.8475.081 2.8114.696 6.3189 1.231 12.6379 1.606 18.9568.429 6.2654.696 12.5576.804 18.8765.053 2.3027-.215 4.5786-.804 6.8277-.589 2.1955-1.472 4.2572-2.65 6.185-.804 1.1246-1.768 2.1421-2.892 3.0524-1.071.9104-2.222 1.6333-3.454 2.1688-.536.2678-1.071.3481-1.607.241-.482-.1071-.91-.3481-1.285-.7229-3.909-3.8557-8.14-7.3097-12.691-10.362-4.552-3.0524-9.318-5.6496-14.298-7.7916-2.517-.3213-5.088-.4284-7.711-.3213-2.571.0535-5.141.2945-7.712.7229-.482.1071-.964.3213-1.446.6426-.428.3213-.776.7229-1.044 1.2049-.214.4284-.428.8568-.642 1.2852-.161.4284-.295.8568-.402 1.2852-1.874-1.1245-3.561-2.4633-5.0606-4.0163-1.4994-1.5529-2.7578-3.2665-3.7753-5.1408-.6961-1.2852-1.0978-2.624-1.2049-4.0163s.1071-2.7846.6426-4.1769c1.0175-2.4098 2.0617-4.7928 3.1327-7.149 1.1246-2.4097 2.3027-4.7927 3.5345-7.1489-1.6066.1071-3.2132.0535-4.8197-.1607s-3.1594-.589-4.6588-1.1245c-.1607-.0536-.2946-.1339-.4017-.241s-.1606-.241-.1606-.4017c-.0536-.0535-.0268-.1338.0803-.2409.1071-.1607.2142-.2678.3213-.3213 4.9802-1.3388 9.8802-2.8382 14.6992-4.4983 4.873-1.7136 9.666-3.5878 14.379-5.6227.803-.3749 1.633-.5891 2.49-.6426.857-.1071 1.713-.0268 2.57.2409 1.5.4284 2.919 1.1246 4.257 2.0885 1.339.9103 2.49 2.0081 3.454 3.2933l-.08 1.2049c0 .2142-.08.4016-.241.5623-.107.1607-.268.241-.482.241-4.498 1.0174-9.023 1.9546-13.575 2.8114-4.552.8032-9.103 1.5529-13.655 2.2491-1.071 1.6065-1.901 3.3201-2.49 5.1408-.589 1.7672-.937 3.6147-1.045 5.5425 2.303-1.2852 4.659-2.4901 7.069-3.6147 2.41-1.1781 4.82-2.2491 7.229-3.213 1.071-.4284 2.089-.9371 3.053-1.5262 1.017-.589 1.954-1.2852 2.811-2.0884.214-.2142.509-.3481.884-.4017.375-.1071.723-.1071 1.044 0 2.142.6962 4.177 1.6869 6.105 2.9721 1.928 1.2316 3.695 2.6775 5.301 4.3376.375.4284.589.8835.643 1.3655.107.4284.107.8568 0 1.2852-.107.2677-.241.5087-.402.7229-.107.2142-.268.4017-.482.5623-1.446 1.3388-2.945 2.6507-4.498 3.936-1.499 1.2852-2.999 2.49-4.498 3.6146 1.071.4284 2.088.9639 3.052 1.6065 1.018.5891 1.955 1.2584 2.812 2.0082.428.4284.696.9371.803 1.5261.107.5355.08 1.0978-.081 1.6869-.267.5355-.562 1.071-.883 1.6065-.268.5355-.562 1.071-.884 1.6065 2.357.4819 4.686.9371 6.989 1.3655 2.356.3749 4.739.6426 7.149.8033.267-2.3562.482-4.7392.642-7.149.161-2.4633.214-4.9266.161-7.3899-.268-5.9441-.402-11.915-.402-17.9126 0-5.9977.161-12.0221.482-18.0733.054-.6426-.08-1.2852-.401-1.9278-.268-.64259-.697-1.15131-1.286-1.52617-.589-.4284-1.258-.77648-2.008-1.04423-.696-.3213-1.419-.56228-2.169-.72293-.696-.2142-1.392-.26775-2.088-.16065-.643.05355-1.285.2142-1.928.48195-2.731.96391-5.489 1.90104-8.273 2.81143-2.731.8568-5.516 1.6868-8.354 2.4901-1.553.4819-3.133.9103-4.739 1.2852-1.607.3213-3.187.6693-4.74 1.0442-2.142.3749-4.31.7229-6.506 1.0442-2.196.2678-4.3912.4284-6.5867.482-.1071.0535-.2142.0535-.3213 0-.1071-.0536-.1874-.1339-.241-.241 0-.1071 0-.2142 0-.3213 0-.1606.0268-.2945.0803-.4016zm95.6577 30.2024c.643-1.3923 1.366-2.7579 2.169-4.0966.803-1.3388 1.66-2.5972 2.571-3.7753-.857-.0536-1.714-.1071-2.571-.1607-.857-.1071-1.74-.1606-2.651-.1606.054 1.3923.108 2.7578.161 4.0966.107 1.3387.214 2.7043.321 4.0966zm22.01 11.2455c.16 1.3924.374 2.7579.642 4.0966.321 1.3388.696 2.6508 1.125 3.936.321-1.4459.749-2.8649 1.285-4.2573.535-1.4458 1.151-2.8381 1.847-4.1769zm31.166-.5622c.91 1.8207 1.847 3.5878 2.811 5.3015 1.018 1.7136 2.035 3.4539 3.053 5.2211-.429-2.3562-.804-4.6856-1.125-6.9883-.321-2.3562-.562-4.7392-.723-7.149zm-31.166-.723c.803-.4819 1.633-.9103 2.49-1.2852.91-.3748 1.794-.7229 2.65-1.0442h.723c.268 0 .509.0803.723.241l1.125.6426c-.964 1.9278-1.928 3.9092-2.892 5.9441-.91 1.9813-1.794 3.9627-2.651 5.9441 1.018-.7497 2.009-1.4995 2.972-2.2492 1.018-.8032 2.062-1.5261 3.133-2.1687-.107-2.5169-.134-5.0606-.08-7.631.107-2.5704.294-5.1408.562-7.7112-1.553.2142-3.079.6426-4.578 1.2852-1.5.6426-2.865 1.4458-4.097 2.4098-.161.9103-.241 1.8474-.241 2.8113 0 .964.053 1.9011.161 2.8114zm-19.118-39.2791c-.482 1.5529-.91 3.1059-1.285 4.6588-.321 1.553-.562 3.1595-.723 4.8196 1.446-.9104 3.026-1.4459 4.739-1.6065 1.714-.1607 3.374 0 4.98.4819l.241-3.695c0-.4284-.026-.83-.08-1.2048-.054-.4284-.161-.8301-.321-1.2049-.107-.482-.188-.9907-.241-1.5262 0-.5355.053-1.0978.16-1.6868-1.178.2142-2.409.4016-3.695.5622-1.231.1607-2.49.2946-3.775.4017zm-3.293 19.3584c.91-.4819 1.847-.8836 2.811-1.2049 1.018-.3213 2.035-.589 3.053-.8032.267-.0536.562-.0268.883.0803.375.1071.669.2677.884.4819.428.2678.803.5891 1.124.964.375.3748.67.8032.884 1.2852l-4.579 5.3014-4.498 5.3819c.107.6426.214 1.2584.321 1.8474.107.5891.188 1.1782.241 1.7672 1.286-1.4994 2.678-2.9185 4.177-4.2572 1.5-1.3388 3.079-2.5705 4.739-3.695l.482-7.9522.402-8.1932c-1.714.1606-3.427.3748-5.141.6426-1.713.2142-3.4.5087-5.06.8835-.268 1.2317-.455 2.4634-.563 3.695-.107 1.2317-.16 2.4901-.16 3.7753zm26.748-9.6391c-.696 1.1246-1.392 2.3027-2.088 3.5344-.696 1.1781-1.339 2.3562-1.928 3.5343l-1.607-.8836c-.321-.1606-.589-.3748-.803-.6426-.214-.2677-.321-.589-.321-.9639-.054-.8033-.081-1.6065-.081-2.4098.054-.8032.134-1.6065.241-2.4097.429-.2678.884-.4552 1.366-.5623.482-.1607.964-.2142 1.446-.1607l.401.9639c.268.3749.59.6159.964.723.429.1071.857.0535 1.286-.1607zm25.704-14.3782c1.66.2677 3.294.6961 4.9 1.2852 1.66.589 3.24 1.3387 4.739 2.2491.215.1607.402.3749.563.6426.214.2142.348.4552.401.7229.214.4284.375.8836.482 1.3656.107.4284.188.9103.241 1.4458.054.3749 0 .7497-.16 1.1246-.108.3748-.295.6961-.563.9639-.214.3213-.482.6158-.803.8836-.268.2142-.562.4016-.884.5623-.374.2677-.83.3748-1.365.3213-.482-.1071-.91-.2946-1.285-.5623-1.393-1.2852-2.597-2.6775-3.615-4.177-1.017-1.5529-1.821-3.1862-2.41-4.8998-.16-.3213-.267-.6426-.321-.9639 0-.3749.027-.6962.08-.9639zm-42.492 37.8333c-3.106 2.8382-6.078 5.8102-8.916 8.9161-2.838 3.0524-5.542 6.2386-8.113 9.5588-.161.2142-.375.3213-.642.3213-.268-.0536-.482-.1875-.643-.4017-.536-.7497-1.018-1.5529-1.446-2.4097-.375-.8568-.723-1.7404-1.044-2.6508-.054-.1606-.081-.3213-.081-.4819 0-.2142.027-.4284.081-.6426l.482-1.7672c1.231-1.5529 2.463-3.0791 3.695-4.5785 1.285-1.4994 2.57-3.0256 3.855-4.5786-.803-1.0174-1.472-2.1152-2.008-3.2933-.482-1.2317-.83-2.4901-1.044-3.7753-.482-3.4273-.428-6.8545.161-10.2817.642-3.4808 1.74-6.7741 3.293-9.88.643-1.2317 1.285-2.4366 1.928-3.6147.642-1.1781 1.285-2.3294 1.928-3.454l-2.249-.1606c-1.179-.1071-2.357-.2678-3.535-.482-1.178-.2677-2.329-.5355-3.454-.8033 1.607-1.3923 3.347-2.5436 5.221-3.4539 1.875-.9104 3.829-1.60656 5.864-2.08851 1.66-.37485 3.267-.83003 4.82-1.36554 1.553-.5355 3.052-1.1781 4.498-1.92781.482-.16065.964-.24097 1.446-.24097.535 0 .99.13387 1.365.40162 1.071.64261 2.062 1.36554 2.972 2.16879.911.80326 1.767 1.68682 2.571 2.65072.16.3213.187.6694.08 1.0443-.054.3213-.268.5622-.643.7229-1.017.4284-2.088.7765-3.213 1.0442-1.071.2678-2.168.482-3.293.6426l2.249 1.6869c.268.1606.455.3748.562.6426.108.2677.134.5355.081.8032-.964 9.2642-1.5 18.5284-1.607 27.7926-.053 9.2107.375 18.4481 1.285 27.7124.054.4284 0 .83-.16 1.2048-.161.3749-.402.6962-.723.9639-.268.2678-.589.482-.964.6426-.321.1607-.669.2678-1.044.3213-1.018-.8568-1.982-1.7939-2.892-2.8113-.857-1.0175-1.633-2.0885-2.329-3.2131-.107-.1606-.161-.3213-.161-.4819.054-.1607.134-.3213.241-.482.375-.4819.616-.9639.723-1.4458.161-.5355.214-1.071.161-1.6065zm14.78-12.0488c1.285-.7497 2.437-1.6333 3.454-2.6508 1.017-1.071 1.928-2.2223 2.731-3.454l2.249-5.0605c.107-.3213.161-.6426.161-.9639.053-.3748.08-.7229.08-1.0442-.107-.4284-.134-.8568-.08-1.2852.053-.4284.187-.8568.401-1.2852.857.4819 1.714 1.0174 2.571 1.6065.857.5355 1.66 1.1245 2.41 1.7671.16.1607.241.3481.241.5623s-.107.3749-.322.482c-.91 1.7136-1.927 3.3736-3.052 4.9802-1.071 1.5529-2.249 3.0255-3.534 4.4179 1.553-.5891 3.106-1.1246 4.659-1.6066 1.552-.5355 3.105-1.0442 4.658-1.5261-.107-2.7311-.267-5.4622-.482-8.1932-.16-2.7847-.428-5.5425-.803-8.2736-.91.8033-1.928 1.4727-3.052 2.0082-1.071.5355-2.223.9371-3.454 1.2049-2.196.6426-4.445 1.1245-6.748 1.4458-2.249.3213-4.551.482-6.908.482-.16 0-.294-.0536-.401-.1607s-.214-.2142-.321-.3213l-.081-.5623c1.5-.9639 3.053-1.8207 4.659-2.5704 1.66-.7497 3.347-1.4191 5.061-2.0081-.375-1.4994-.83-2.9721-1.366-4.4179-.535-1.44589-1.151-2.86497-1.847-4.25728l-1.366-1.92781c-.107-.16065-.187-.3213-.241-.48195 0-.21421.054-.40163.161-.56228l.321-.88358 2.089-.64261c1.606.91036 3.159 1.95459 4.658 3.1327 1.5 1.1781 2.892 2.40976 4.177 3.69497.107.16065.161.3213.161.48195.054.16066.054.29453 0 .40163-.321.69616-.669 1.39236-1.044 2.08846-.322.6962-.643 1.3923-.964 2.0885.964-.482 1.981-.7497 3.052-.8033 1.125-.1071 2.196 0 3.213.3213-.107-1.0174-.214-2.0081-.321-2.972-.107-1.01749-.241-2.00817-.402-2.97207-.16-.74971-.375-1.47264-.642-2.16879-.268-.74971-.616-1.44586-1.045-2.08847.215-.37485.429-.7497.643-1.12455.268-.42841.562-.80326.884-1.12456.214-.267752.455-.428403.723-.481953.321-.053551.615 0 .883.160651 1.446.696152 2.838 1.552962 4.177 2.570412 1.392.96391 2.624 2.06169 3.695 3.29335.589.6426.964 1.41909 1.125 2.32944.16.91036.026 1.74034-.402 2.49014-.696 3.213-1.178 6.426-1.446 9.639s-.268 6.4528 0 9.7194c.964-.3213 1.955-.5623 2.972-.7229 1.071-.1607 2.115-.2678 3.133-.3213.482 0 .937.0535 1.365.1606.482.1071.911.2678 1.286.482.91.7497 1.74 1.5797 2.49 2.4901.803.8568 1.446 1.8207 1.928 2.8917-.375.3213-.777.6158-1.205.8836-.429.2677-.884.5355-1.366.8032-.321.2142-.696.3481-1.124.4016-.375 0-.75-.0535-1.125-.1606-1.285-.2142-2.597-.3749-3.936-.482-1.285-.1606-2.57-.2409-3.856-.2409.268 2.0349.643 4.0698 1.125 6.1047.482 1.9814 1.044 3.9627 1.687 5.9441l1.285-2.0081c.268-.3213.428-.6694.482-1.0443.107-.3748.107-.7765 0-1.2049-.054-.2677-.08-.5087-.08-.7229.053-.2677.134-.5355.241-.8032.16-.3213.374-.5355.642-.6426.322-.1071.643-.1339.964-.0804.536.1071 1.018.3213 1.446.6426.482.2678.937.5891 1.366.9639.642.6962 1.231 1.4727 1.767 2.3295.535.8032.99 1.6333 1.365 2.4901.107.2142.134.4284.081.6426-.054.1606-.134.3213-.241.4819l-1.286 1.2852c1.071 3.1595 2.116 6.3458 3.133 9.5588 1.017 3.1594 1.981 6.3725 2.892 9.639.214.8568.348 1.7404.401 2.6508.054.9639.027 1.901-.08 2.8114 0 .6426-.241 1.1513-.723 1.5262-.482.4284-1.044.6158-1.687.5622-.91-.0535-1.794-.2945-2.65-.7229-.857-.3748-1.607-.9104-2.25-1.6065-1.927-2.1956-3.721-4.4982-5.381-6.908-1.66-2.3562-3.16-4.7928-4.499-7.3096-1.767 1.7671-3.507 3.5879-5.221 5.4621-1.66 1.8207-3.347 3.6682-5.06 5.5425 0-.1071-.027-.2142-.081-.3213 0-.1071.027-.2142.081-.3213 1.231-2.4633 2.543-4.9267 3.936-7.39 1.392-2.4633 2.811-4.8731 4.257-7.2293-1.392-3.1594-2.49-6.426-3.293-9.7997-.804-3.4272-1.259-6.8544-1.366-10.2817-2.999.3213-5.971.8301-8.916 1.5262-2.945.6426-5.784 1.5262-8.515 2.6508-.321 1.071-.615 2.1688-.883 3.2933-.214 1.071-.402 2.1688-.562 3.2934 1.231-.8033 2.49-1.5798 3.775-2.3295 1.339-.7497 2.677-1.4726 4.016-2.1688.214-.1071.455-.1874.723-.2409.268-.0536.536-.0804.803-.0804.268 0 .536.0536.804.1607.321.0535.589.1606.803.3213 1.178.589 2.276 1.312 3.293 2.1688 1.018.8032 1.982 1.66 2.892 2.5704-.91 2.142-1.607 4.3108-2.089 6.5064-.482 2.1955-.776 4.4446-.883 6.7473-.054 1.0175-.161 2.0349-.321 3.0524-.108 1.0174-.295 2.0349-.563 3.0523-.053.2142-.134.4017-.241.5623-.107.1607-.214.3213-.321.482-.214.2142-.455.3748-.723.4819-.214.1607-.482.241-.803.241-.268 0-.509-.0535-.723-.1606-.214-.0536-.429-.1607-.643-.3213-.375-.3749-.723-.8033-1.044-1.2853-.321-.4819-.589-.9906-.803-1.5261-1.071.589-2.035 1.3387-2.892 2.2491-.857.9103-1.553 1.901-2.088 2.972-.107.1071-.215.1874-.322.241-.107.1071-.241.1606-.401.1606-.107 0-.241-.0267-.402-.0803-.107-.0535-.187-.1606-.241-.3213-1.232-2.0884-2.276-4.284-3.133-6.5867-.856-2.3562-1.499-4.7392-1.927-7.1489-.161-1.1246-.241-2.2492-.241-3.3737.053-1.1781.187-2.3295.401-3.454.322-1.4459.696-2.8382 1.125-4.1769.482-1.3924 1.044-2.7579 1.687-4.0966-.697.3213-1.419.6426-2.169.9639-.696.3213-1.366.6961-2.008 1.1245-.375.2142-.75.241-1.125.0803-.375-.2142-.616-.5087-.723-.8835 1.285-1.2852 2.651-2.4634 4.097-3.5344 1.446-1.1245 2.945-2.142 4.498-3.0523zm79.294 11.2455c-3.106 2.9989-6.399 5.7567-9.88 8.2736-3.481 2.5168-7.122 4.766-10.924 6.7473-.536.2142-1.071.2678-1.607.1607-.535-.1607-.964-.482-1.285-.9639-.428-.6962-.83-1.4191-1.205-2.1688-.321-.7497-.616-1.5262-.883-2.3295-.107-.2142-.161-.4284-.161-.6426s.054-.4284.161-.6426l.883.723c.482.2677.991.4016 1.526.4016.536-.0536.991-.2142 1.366-.482 6.051-5.837 11.54-12.1291 16.467-18.8765 4.926-6.7473 9.157-13.9231 12.691-21.5272.268-.482.402-.9907.402-1.5262s-.134-1.071-.402-1.6065c-.268-.6426-.535-1.312-.803-2.0081-.268-.7497-.482-1.4727-.643-2.1688-.107-.53554-.134-1.04426-.08-1.52622.054-.5355.214-1.01745.482-1.44586.535-.9639 1.151-1.87426 1.847-2.73106.75-.85681 1.553-1.63329 2.41-2.32944.482-.37486.991-.56228 1.526-.56228.589-.05355 1.098.08032 1.527.40162 2.088 1.23166 4.203 2.43654 6.345 3.61465 2.196 1.17811 4.391 2.30267 6.587 3.37367.75.32131 1.232.88359 1.446 1.68682.268.7497.241 1.4727-.081 2.1688-.535 1.0175-1.124 1.9814-1.767 2.8917-.589.8568-1.258 1.7136-2.008 2.5704-1.231 1.2853-2.383 2.6508-3.454 4.0966-1.071 1.4459-2.062 2.9453-2.972 4.4983-1.499 2.5168-3.079 4.9534-4.739 7.3096-1.607 2.3562-3.347 4.6321-5.221 6.8277 4.498 2.142 8.809 4.6321 12.932 7.4702 4.177 2.7847 8.14 5.8906 11.888 9.3178.589.482 1.205.9371 1.848 1.3655.696.3749 1.392.723 2.088 1.0443 2.731 1.071 5.302 2.4097 7.712 4.0162 2.409 1.6066 4.658 3.4273 6.747 5.4622.321.3213.562.6961.723 1.1245.214.4284.321.8568.321 1.2852.054.3213.027.6159-.08.8836-.107.3213-.241.6426-.402.9639-.482.7497-1.098 1.4191-1.847 2.0082-.75.6426-1.58 1.1513-2.49 1.5262-.268.1071-.536.1606-.804.1606-.267.0536-.535.0536-.803 0-1.178-.1606-2.356-.3748-3.534-.6426-1.125-.2142-2.249-.482-3.374-.8033-2.892-1.0174-5.569-2.4633-8.032-4.3375-2.464-1.8207-4.606-3.936-6.426-6.3457-1.875-2.6776-4.017-5.1141-6.427-7.3097-2.356-2.2491-4.899-4.2572-7.63-6.0244-1.5-.9103-3.106-1.66-4.82-2.2491-1.66-.5891-3.374-.9639-5.141-1.1246z" fill="#fff"/></svg>