<svg width="110" height="101" viewBox="0 0 110 101" fill="none" xmlns="http://www.w3.org/2000/svg">
<path d="M55 0.788331L110 47L55 93.2117L9.55339e-07 47L55 0.788331Z" fill="url(#paint0_linear_84_286)"/>
<path fill-rule="evenodd" clip-rule="evenodd" d="M7.00718 47.7769L4.34133 50.0305L3.4375 48.9613L5.9229 46.8602L3.438 44.7596L4.34183 43.6904L7.00718 45.9436L53.919 6.28588L51.7739 4.47248L52.6778 3.40332L55.0033 5.36927L57.3289 3.40332L58.2327 4.47248L56.0876 6.28588L103 45.9437L105.665 43.6904L106.569 44.7596L104.084 46.8603L106.569 48.9613L105.665 50.0305L103 47.777L56.0877 87.4347L58.2332 89.2484L57.3294 90.3176L55.0034 88.3513L52.6775 90.3176L51.7737 89.2484L53.9192 87.4347L7.00718 47.7769ZM8.09145 46.8602L55.0034 86.5181L101.915 46.8603L55.0033 7.20249L8.09145 46.8602Z" fill="#DDC7A2"/>
<path fill-rule="evenodd" clip-rule="evenodd" d="M55 2.09445L1.55452 47L55 91.9056L108.445 47L55 2.09445ZM55 0.788331L9.55339e-07 47L55 93.2117L110 47L55 0.788331Z" fill="url(#paint1_linear_84_286)"/>
<path fill-rule="evenodd" clip-rule="evenodd" d="M37.3863 30.768V40.246H38.9123V34.548H42.6363V30.768H37.3863ZM38.9123 31.748V32.21H41.1243V31.748H38.9123ZM41.1243 33.106H38.9123V33.582H41.1243V33.106Z" fill="#B28332"/>
<path fill-rule="evenodd" clip-rule="evenodd" d="M40.3403 35.08V39.518H41.8383V39.028H45.5143C45.6747 39.4155 45.8243 39.9014 45.8703 40.246C46.9063 40.26 47.6483 40.232 48.1523 39.994C48.6563 39.756 48.8103 39.35 48.8103 38.566V30.768H43.4623V34.548H47.2423V38.552C47.2423 38.748 47.1723 38.804 46.9623 38.818C46.9296 38.818 46.8848 38.8183 46.8299 38.8187C46.5761 38.8206 46.1084 38.8242 45.6463 38.8032V35.08H40.3403ZM41.8383 36.018V36.592H44.1763V36.018H41.8383ZM44.1763 37.502H41.8383V38.104H44.1763V37.502ZM47.2423 33.582V33.106H44.9743V33.582H47.2423ZM44.9743 32.21H47.2423V31.748H44.9743V32.21Z" fill="#B28332"/>
<path d="M38.8851 29.368C38.5149 29.8854 38.1181 30.3495 37.7363 30.712C37.4143 30.446 36.7423 30.012 36.3643 29.802C37.2183 29.116 38.0023 28.052 38.4363 27.002L40.0043 27.422C39.9038 27.6512 39.7915 27.8808 39.67 28.108H42.7903V29.1062C43.374 28.4971 43.8658 27.753 44.1623 27.002L45.7583 27.394C45.6573 27.6341 45.5414 27.8732 45.4141 28.108H49.3843V29.368H47.0789C47.3179 29.693 47.5358 30.0306 47.6623 30.292L46.1643 30.712C46.0078 30.3509 45.6755 29.814 45.3362 29.368H44.5952C44.2393 29.8336 43.8581 30.2471 43.4903 30.572C43.1403 30.334 42.4263 29.956 42.0203 29.788C42.1926 29.6607 42.3614 29.5199 42.5247 29.368H40.6621C40.8564 29.689 41.0298 30.0204 41.1243 30.278L39.6683 30.684C39.56 30.3351 39.2967 29.8106 39.0294 29.368H38.8851Z" fill="#B28332"/>
<path fill-rule="evenodd" clip-rule="evenodd" d="M51.7643 35.4856H55.9503V36.3956H50.5183V37.9496H55.9503V40.2596H57.6863V37.9496H63.2163V36.3956H57.6863V35.4856H62.0823V29.5636H60.9829C61.3961 29.0051 61.8587 28.3251 62.2923 27.6596L60.4163 27.1136C60.1204 27.8668 59.579 28.8656 59.09 29.5636H56.9238L57.9523 29.1576C57.7283 28.5696 57.1823 27.7016 56.7203 27.0576L55.2083 27.6316C55.614 28.2216 56.052 28.9952 56.276 29.5636H53.7626L54.6343 29.1436C54.3543 28.5836 53.7383 27.7576 53.2203 27.1836L51.7783 27.8276C52.1934 28.3465 52.656 29.0269 52.9393 29.5636H51.7643V35.4856ZM53.4023 30.9216H55.9503V31.8736H53.4023V30.9216ZM53.4023 33.1616H55.9503V34.1136H53.4023V33.1616ZM57.6863 33.1616V34.1136H60.3603V33.1616H57.6863ZM57.6863 30.9216V31.8736H60.3603V30.9216H57.6863Z" fill="#B28332"/>
<path d="M66.0581 35.4724L65.7501 30.3064L65.6941 28.3604H67.7521L67.6961 30.3064L67.4021 35.4724H66.0581Z" fill="#B28332"/>
<path d="M66.7161 39.1964C65.9881 39.1964 65.4421 38.6224 65.4421 37.8524C65.4421 37.0824 65.9881 36.5224 66.7161 36.5224C67.4581 36.5224 68.0041 37.0824 68.0041 37.8524C68.0041 38.6224 67.4581 39.1964 66.7161 39.1964Z" fill="#B28332"/>
<path d="M42.2944 50.3726C42.2944 49.5701 42.0632 48.9235 41.6006 48.4326C41.138 47.9323 40.5244 47.6821 39.7598 47.6821C38.8724 47.6821 38.1833 47.9653 37.6924 48.5317C37.2109 49.0887 36.9608 49.8864 36.9419 50.9248H33.2036C33.2319 48.8197 33.8361 47.2007 35.0161 46.0679C36.2056 44.9256 37.8765 44.3545 40.0288 44.3545C41.8791 44.3545 43.3942 44.8926 44.5742 45.9688C45.7542 47.0449 46.3442 48.4279 46.3442 50.1177C46.3442 51.5809 45.7306 52.7798 44.5034 53.7144L43.9512 54.0825C44.4232 54.2619 44.8385 54.4979 45.1973 54.7905C46.3773 55.7062 46.9673 57.0845 46.9673 58.9253C46.9673 60.9549 46.3254 62.5645 45.0415 63.7539C43.7671 64.9434 42.0443 65.5381 39.873 65.5381C37.6357 65.5381 35.8988 64.9528 34.6621 63.7822C33.4349 62.6022 32.8071 60.9266 32.7788 58.7554H36.7295C36.7484 59.9165 37.008 60.8039 37.5083 61.4175C38.0181 62.0216 38.7497 62.3237 39.7031 62.3237C40.6283 62.3237 41.374 62.0169 41.9404 61.4033C42.5068 60.7897 42.79 59.9826 42.79 58.9819C42.79 58.104 42.5068 57.396 41.9404 56.8579C41.4401 56.3953 40.8076 56.1357 40.043 56.0791C39.6182 56.0508 39.2217 56.0366 38.8535 56.0366C38.4948 56.0272 38.2635 56.0366 38.1597 56.0649V53.063C38.2729 53.0819 38.5137 53.0866 38.8818 53.0771C39.25 53.0583 39.6418 53.0252 40.0571 52.978C40.6991 52.9025 41.2088 52.6807 41.5864 52.3125C42.0584 51.8594 42.2944 51.2127 42.2944 50.3726Z" fill="url(#paint2_linear_84_286)"/>
<path fill-rule="evenodd" clip-rule="evenodd" d="M55.0397 65.5381C52.623 65.5381 50.8341 64.6838 49.673 62.9751C48.5119 61.257 47.9266 58.6185 47.9171 55.0596C47.9266 51.4157 48.5119 48.7205 49.673 46.9741C50.8341 45.2277 52.623 44.3545 55.0397 44.3545C57.4753 44.3545 59.2736 45.2277 60.4347 46.9741C61.5959 48.7205 62.1764 51.3826 62.1764 54.9604V55.0596C62.1859 58.6185 61.6053 61.257 60.4347 62.9751C59.2736 64.6838 57.4753 65.5381 55.0397 65.5381ZM55.0397 62.2529C56.1253 62.2529 56.89 61.7101 57.3337 60.6245C57.7773 59.5389 57.9992 57.6745 57.9992 55.0312C58.0086 52.3219 57.7868 50.415 57.3337 49.3105C56.89 48.1966 56.1253 47.6396 55.0397 47.6396C53.9635 47.6396 53.2036 48.1966 52.7599 49.3105C52.3257 50.415 52.1038 52.3219 52.0944 55.0312C52.0944 57.6745 52.3162 59.5389 52.7599 60.6245C53.2036 61.7101 53.9635 62.2529 55.0397 62.2529Z" fill="url(#paint3_linear_84_286)"/>
<path d="M74.4451 50.1904H72.2551V57.8104C72.2551 57.9754 72.1951 58.0204 72.0301 58.0204C71.8501 58.0204 71.3401 58.0204 70.8901 58.0054C71.1901 58.5904 71.5051 59.5354 71.5801 60.1504C72.4651 60.1504 73.1701 60.0754 73.7251 59.7304C74.2951 59.3704 74.4451 58.7854 74.4451 57.8404V50.1904Z" fill="url(#paint4_linear_84_286)"/>
<path d="M72.1051 53.1454L70.0351 52.8004C69.8764 54.0472 69.5636 55.3026 69.0901 56.2752V54.3904H67.6501V52.5132C68.2562 52.3571 68.8402 52.1785 69.3751 51.9754L67.9351 50.2954C66.7501 50.8204 64.9651 51.2704 63.3151 51.5404C63.5551 51.9904 63.8251 52.7254 63.9151 53.2054C64.4355 53.1393 64.9819 53.0589 65.5351 52.9626V54.3904H63.5401V56.4154H65.2509C64.745 57.7252 63.998 59.1512 63.2251 60.0604C63.5551 60.6154 64.0201 61.5304 64.2151 62.1604C64.6913 61.5296 65.1369 60.6999 65.5351 59.7912V64.4254H67.6501V58.9859C67.901 59.4332 68.1311 59.8736 68.2801 60.2104L69.5101 58.5004C69.2469 58.1788 68.0573 56.9306 67.6501 56.59V56.4154H69.0197C68.8854 56.6748 68.7389 56.9118 68.5801 57.1204C69.0901 57.3454 70.0201 57.8404 70.4401 58.1404C71.2051 56.9704 71.8051 55.0654 72.1051 53.1454Z" fill="url(#paint5_linear_84_286)"/>
<path d="M76.3951 52.6054L74.5051 53.2204C75.1201 54.5704 75.6451 56.4004 75.7801 57.5854L77.8051 56.8954C77.6101 55.6954 77.0551 53.9554 76.3951 52.6054Z" fill="url(#paint6_linear_84_286)"/>
<path d="M77.1601 58.1704L75.0301 57.6604C74.1001 60.6904 72.1051 61.8604 68.7601 62.4004C69.2251 62.9254 69.7201 63.7804 69.9301 64.4404C73.8001 63.4804 76.0351 61.9354 77.1601 58.1704Z" fill="url(#paint7_linear_84_286)"/>
<defs>
<linearGradient id="paint0_linear_84_286" x1="55" y1="0.5" x2="55" y2="93.5" gradientUnits="userSpaceOnUse">
<stop stop-color="white"/>
<stop offset="1" stop-color="#F8F0E2"/>
</linearGradient>
<linearGradient id="paint1_linear_84_286" x1="82.5" y1="19.5" x2="27.5" y2="74.5" gradientUnits="userSpaceOnUse">
<stop stop-color="#DDC7A2"/>
<stop offset="1" stop-color="#B5883B"/>
</linearGradient>
<linearGradient id="paint2_linear_84_286" x1="70.5001" y1="45.0004" x2="70.5001" y2="67.0004" gradientUnits="userSpaceOnUse">
<stop stop-color="#EBCD9A"/>
<stop offset="0.86921" stop-color="#975F00"/>
</linearGradient>
<linearGradient id="paint3_linear_84_286" x1="70.5001" y1="45.0004" x2="70.5001" y2="67.0004" gradientUnits="userSpaceOnUse">
<stop stop-color="#EBCD9A"/>
<stop offset="0.86921" stop-color="#975F00"/>
</linearGradient>
<linearGradient id="paint4_linear_84_286" x1="70.5001" y1="45.0004" x2="70.5001" y2="67.0004" gradientUnits="userSpaceOnUse">
<stop stop-color="#EBCD9A"/>
<stop offset="0.86921" stop-color="#975F00"/>
</linearGradient>
<linearGradient id="paint5_linear_84_286" x1="70.5001" y1="45.0004" x2="70.5001" y2="67.0004" gradientUnits="userSpaceOnUse">
<stop stop-color="#EBCD9A"/>
<stop offset="0.86921" stop-color="#975F00"/>
</linearGradient>
<linearGradient id="paint6_linear_84_286" x1="70.5001" y1="45.0004" x2="70.5001" y2="67.0004" gradientUnits="userSpaceOnUse">
<stop stop-color="#EBCD9A"/>
<stop offset="0.86921" stop-color="#975F00"/>
</linearGradient>
<linearGradient id="paint7_linear_84_286" x1="70.5001" y1="45.0004" x2="70.5001" y2="67.0004" gradientUnits="userSpaceOnUse">
<stop stop-color="#EBCD9A"/>
<stop offset="0.86921" stop-color="#975F00"/>
</linearGradient>
</defs>
</svg>
