<svg width="136" height="137" viewBox="0 0 136 137" fill="none" xmlns="http://www.w3.org/2000/svg">
<path d="M68 0.712141L136 63.56L68 126.408L-4.00597e-06 63.56L68 0.712141Z" fill="url(#paint0_linear_84_312)"/>
<path fill-rule="evenodd" clip-rule="evenodd" d="M8.66293 64.6166L5.36698 67.6815L4.24951 66.2274L7.32238 63.37L4.25013 60.5131L5.36759 59.059L8.66293 62.1234L66.6631 8.18884L64.0109 5.72261L65.1284 4.26855L68.0036 6.94225L70.8789 4.26855L71.9963 5.72261L69.3442 8.18884L127.344 62.1235L130.64 59.059L131.757 60.5131L128.685 63.3701L131.758 66.2274L130.64 67.6815L127.344 64.6167L69.3443 118.551L71.9969 121.018L70.8795 122.472L68.0038 119.798L65.1281 122.472L64.0106 121.018L66.6632 118.551L8.66293 64.6166ZM10.0035 63.37L68.0038 117.305L126.004 63.3701L68.0036 9.43543L10.0035 63.37Z" fill="#DDC7A2"/>
<path fill-rule="evenodd" clip-rule="evenodd" d="M68 2.48847L1.92194 63.56L68 124.632L134.078 63.56L68 2.48847ZM68 0.712141L-6.01269e-06 63.56L68 126.408L136 63.56L68 0.712141Z" fill="url(#paint1_linear_84_312)"/>
<path fill-rule="evenodd" clip-rule="evenodd" d="M46.2225 41.4843V54.3744H48.1092V46.6251H52.7135V41.4843H46.2225ZM48.1092 42.8171V43.4454H50.8441V42.8171H48.1092ZM50.8441 44.664H48.1092V45.3114H50.8441V44.664Z" fill="#B28332"/>
<path fill-rule="evenodd" clip-rule="evenodd" d="M49.8748 47.3486V53.3843H51.7268V52.7179H56.2717C56.4701 53.245 56.6551 53.9058 56.7119 54.3744C57.9927 54.3934 58.9101 54.3554 59.5332 54.0317C60.1564 53.708 60.3468 53.1558 60.3468 52.0896V41.4843H53.7347V46.6251H58.4081V52.0706C58.4081 52.3371 58.3216 52.4133 58.062 52.4323C58.0216 52.4323 57.9661 52.4328 57.8984 52.4333C57.5845 52.4359 57.0063 52.4407 56.4349 52.4122V47.3486H49.8748ZM51.7268 48.6243V49.405H54.6175V48.6243H51.7268ZM54.6175 50.6426H51.7268V51.4613H54.6175V50.6426ZM58.4081 45.3114V44.664H55.6041V45.3114H58.4081ZM55.6041 43.4454H58.4081V42.8171H55.6041V43.4454Z" fill="#B28332"/>
<path d="M48.0757 39.5803C47.6179 40.284 47.1274 40.9153 46.6553 41.4082C46.2572 41.0464 45.4263 40.4561 44.959 40.1706C46.0148 39.2376 46.9841 37.7905 47.5207 36.3625L49.4593 36.9337C49.3352 37.2455 49.1963 37.5578 49.0461 37.8667H52.9039V39.2243C53.6255 38.396 54.2336 37.384 54.6001 36.3625L56.5734 36.8957C56.4486 37.2223 56.3053 37.5474 56.1479 37.8667H61.0564V39.5803H58.2062C58.5017 40.0224 58.771 40.4815 58.9274 40.8369L57.0753 41.4082C56.8819 40.9171 56.471 40.1869 56.0516 39.5803H55.1354C54.6954 40.2136 54.2241 40.7759 53.7693 41.2177C53.3366 40.8941 52.4538 40.38 51.9519 40.1515C52.1649 39.9784 52.3737 39.7869 52.5756 39.5803H50.2726C50.5129 40.017 50.7273 40.4676 50.8441 40.8179L49.0439 41.3701C48.9101 40.8957 48.5846 40.1824 48.2541 39.5803H48.0757Z" fill="#B28332"/>
<path fill-rule="evenodd" clip-rule="evenodd" d="M63.999 47.9003H69.1745V49.1379H62.4585V51.2514H69.1745V54.393H71.3208V51.2514H78.1579V49.1379H71.3208V47.9003H76.7558V39.8464H75.3966C75.9075 39.0868 76.4794 38.162 77.0155 37.257L74.6961 36.5144C74.3302 37.5388 73.6608 38.8971 73.0562 39.8464H70.378L71.6497 39.2943C71.3727 38.4946 70.6977 37.3141 70.1265 36.4383L68.2571 37.2189C68.7586 38.0213 69.3002 39.0733 69.5771 39.8464H66.4697L67.5474 39.2752C67.2012 38.5136 66.4396 37.3903 65.7992 36.6096L64.0164 37.4855C64.5296 38.1912 65.1016 39.1165 65.4517 39.8464H63.999V47.9003ZM66.0242 41.6933H69.1745V42.988H66.0242V41.6933ZM66.0242 44.7397H69.1745V46.0344H66.0242V44.7397ZM71.3208 44.7397V46.0344H74.6268V44.7397H71.3208ZM71.3208 41.6933V42.988H74.6268V41.6933H71.3208Z" fill="#B28332"/>
<path d="M81.6714 47.8823L81.2906 40.8565L81.2214 38.21H83.7658L83.6966 40.8565L83.3331 47.8823H81.6714Z" fill="#B28332"/>
<path d="M82.4849 52.9469C81.5849 52.9469 80.9098 52.1663 80.9098 51.1191C80.9098 50.0719 81.5849 49.3103 82.4849 49.3103C83.4023 49.3103 84.0774 50.0719 84.0774 51.1191C84.0774 52.1663 83.4023 52.9469 82.4849 52.9469Z" fill="#B28332"/>
<path d="M52.2911 68.1465C52.2911 67.0552 52.0052 66.1758 51.4333 65.5082C50.8614 64.8277 50.1028 64.4875 49.1574 64.4875C48.0603 64.4875 47.2082 64.8727 46.6013 65.643C46.0061 66.4004 45.6968 67.4853 45.6735 68.8975H41.0516C41.0866 66.0345 41.8336 63.8327 43.2925 62.2921C44.7631 60.7386 46.8289 59.9619 49.49 59.9619C51.7776 59.9619 53.6509 60.6937 55.1098 62.1573C56.5687 63.6209 57.2982 65.5017 57.2982 67.7998C57.2982 69.7898 56.5395 71.4203 55.0222 72.6913L54.3395 73.192C54.923 73.436 55.4366 73.7569 55.8801 74.1549C57.339 75.4003 58.0685 77.2747 58.0685 79.7782C58.0685 82.5385 57.2748 84.7275 55.6875 86.3451C54.1119 87.9628 51.9818 88.7716 49.2974 88.7716C46.5313 88.7716 44.3838 87.9756 42.8548 86.3836C41.3375 84.7788 40.5614 82.5 40.5264 79.5471H45.4108C45.4342 81.1263 45.7552 82.3331 46.3737 83.1676C47.004 83.9892 47.9085 84.4001 49.0873 84.4001C50.2311 84.4001 51.1532 83.9828 51.8535 83.1483C52.5537 82.3138 52.9039 81.2161 52.9039 79.8552C52.9039 78.6613 52.5537 77.6984 51.8535 76.9666C51.2349 76.3375 50.4529 75.9844 49.5075 75.9074C48.9823 75.8689 48.4921 75.8496 48.0369 75.8496C47.5934 75.8368 47.3075 75.8496 47.1791 75.8881V71.8055C47.3191 71.8311 47.6167 71.8376 48.0719 71.8247C48.5271 71.7991 49.0115 71.7541 49.525 71.6899C50.3187 71.5872 50.9489 71.2855 51.4158 70.7848C51.9994 70.1686 52.2911 69.2891 52.2911 68.1465Z" fill="url(#paint2_linear_84_312)"/>
<path fill-rule="evenodd" clip-rule="evenodd" d="M68.0489 88.7716C65.0611 88.7716 62.8493 87.6097 61.4137 85.2859C59.9782 82.9493 59.2545 79.361 59.2429 74.5208C59.2545 69.5651 59.9782 65.8997 61.4137 63.5246C62.8493 61.1495 65.0611 59.9619 68.0489 59.9619C71.0602 59.9619 73.2836 61.1495 74.7191 63.5246C76.1547 65.8997 76.8725 69.5202 76.8725 74.386V74.5208C76.8842 79.361 76.1664 82.9493 74.7191 85.2859C73.2836 87.6097 71.0602 88.7716 68.0489 88.7716ZM68.0489 84.3038C69.3911 84.3038 70.3365 83.5656 70.8851 82.0891C71.4336 80.6127 71.7079 78.0771 71.7079 74.4823C71.7196 70.7976 71.4453 68.2043 70.8851 66.7021C70.3365 65.1872 69.3911 64.4297 68.0489 64.4297C66.7184 64.4297 65.7788 65.1872 65.2303 66.7021C64.6934 68.2043 64.4191 70.7976 64.4075 74.4823C64.4075 78.0771 64.6817 80.6127 65.2303 82.0891C65.7788 83.5656 66.7184 84.3038 68.0489 84.3038Z" fill="url(#paint3_linear_84_312)"/>
<path d="M92.0411 67.8988H89.3334V78.262C89.3334 78.4864 89.2592 78.5476 89.0552 78.5476C88.8327 78.5476 88.2021 78.5476 87.6458 78.5272C88.0167 79.3228 88.4061 80.608 88.4989 81.4444C89.593 81.4444 90.4647 81.3424 91.1509 80.8732C91.8556 80.3836 92.0411 79.588 92.0411 78.3028V67.8988Z" fill="url(#paint4_linear_84_312)"/>
<path d="M89.148 71.9176L86.5887 71.4484C86.3925 73.144 86.0057 74.8513 85.4203 76.1741V73.6108H83.64V71.0578C84.3893 70.8454 85.1113 70.6026 85.7727 70.3264L83.9923 68.0416C82.5272 68.7556 80.3203 69.3676 78.2803 69.7348C78.5771 70.3468 78.9109 71.3464 79.0221 71.9992C79.6656 71.9092 80.3411 71.7998 81.0251 71.669V73.6108H78.5585V76.3648H80.6736C80.0482 78.146 79.1246 80.0854 78.1691 81.322C78.5771 82.0768 79.152 83.3212 79.3931 84.178C79.9818 83.3201 80.5327 82.1917 81.0251 80.9558V87.2584H83.64V79.8607C83.9501 80.4689 84.2347 81.0678 84.4189 81.526L85.9396 79.2004C85.6142 78.7629 84.1434 77.0655 83.64 76.6022V76.3648H85.3333C85.1672 76.7176 84.9861 77.0399 84.7898 77.3236C85.4203 77.6296 86.5701 78.3028 87.0894 78.7108C88.0352 77.1196 88.777 74.5288 89.148 71.9176Z" fill="url(#paint5_linear_84_312)"/>
<path d="M94.452 71.1832L92.1152 72.0196C92.8756 73.8556 93.5247 76.3444 93.6916 77.956L96.1952 77.0176C95.9541 75.3856 95.268 73.0192 94.452 71.1832Z" fill="url(#paint6_linear_84_312)"/>
<path d="M95.3978 78.7516L92.7643 78.058C91.6145 82.1788 89.148 83.77 85.0123 84.5044C85.5872 85.2184 86.1992 86.3812 86.4589 87.2788C91.2436 85.9732 94.0069 83.872 95.3978 78.7516Z" fill="url(#paint7_linear_84_312)"/>
<defs>
<linearGradient id="paint0_linear_84_312" x1="68" y1="0.320012" x2="68" y2="126.8" gradientUnits="userSpaceOnUse">
<stop stop-color="white"/>
<stop offset="1" stop-color="#F8F0E2"/>
</linearGradient>
<linearGradient id="paint1_linear_84_312" x1="102" y1="26.16" x2="27.5385" y2="93.8523" gradientUnits="userSpaceOnUse">
<stop stop-color="#DDC7A2"/>
<stop offset="1" stop-color="#B5883B"/>
</linearGradient>
<linearGradient id="paint2_linear_84_312" x1="87.1636" y1="60.8404" x2="87.1636" y2="90.7604" gradientUnits="userSpaceOnUse">
<stop stop-color="#EBCD9A"/>
<stop offset="0.86921" stop-color="#975F00"/>
</linearGradient>
<linearGradient id="paint3_linear_84_312" x1="87.1636" y1="60.8404" x2="87.1636" y2="90.7604" gradientUnits="userSpaceOnUse">
<stop stop-color="#EBCD9A"/>
<stop offset="0.86921" stop-color="#975F00"/>
</linearGradient>
<linearGradient id="paint4_linear_84_312" x1="87.1636" y1="60.8404" x2="87.1636" y2="90.7604" gradientUnits="userSpaceOnUse">
<stop stop-color="#EBCD9A"/>
<stop offset="0.86921" stop-color="#975F00"/>
</linearGradient>
<linearGradient id="paint5_linear_84_312" x1="87.1636" y1="60.8404" x2="87.1636" y2="90.7604" gradientUnits="userSpaceOnUse">
<stop stop-color="#EBCD9A"/>
<stop offset="0.86921" stop-color="#975F00"/>
</linearGradient>
<linearGradient id="paint6_linear_84_312" x1="87.1636" y1="60.8404" x2="87.1636" y2="90.7604" gradientUnits="userSpaceOnUse">
<stop stop-color="#EBCD9A"/>
<stop offset="0.86921" stop-color="#975F00"/>
</linearGradient>
<linearGradient id="paint7_linear_84_312" x1="87.1636" y1="60.8404" x2="87.1636" y2="90.7604" gradientUnits="userSpaceOnUse">
<stop stop-color="#EBCD9A"/>
<stop offset="0.86921" stop-color="#975F00"/>
</linearGradient>
</defs>
</svg>
