<svg fill="none" height="40" viewBox="0 0 40 40" width="40" xmlns="http://www.w3.org/2000/svg" xmlns:xlink="http://www.w3.org/1999/xlink"><clipPath id="a"><path d="m8 6.66675h23.3333v26.6667h-23.3333z"/></clipPath><rect fill="#000" height="40" rx="6" width="40"/><g clip-path="url(#a)"><path d="m19.6719 14.0104c-3.3125 0-5.9844 2.6719-5.9844 5.9844s2.6719 5.9844 5.9844 5.9844 5.9844-2.6719 5.9844-5.9844-2.6719-5.9844-5.9844-5.9844zm0 9.875c-2.1406 0-3.8907-1.7448-3.8907-3.8906s1.7448-3.8906 3.8907-3.8906c2.1458 0 3.8906 1.7448 3.8906 3.8906s-1.75 3.8906-3.8906 3.8906zm7.625-10.1198c0 .7761-.625 1.3959-1.3959 1.3959-.776 0-1.3958-.625-1.3958-1.3959 0-.7708.625-1.3958 1.3958-1.3958.7709 0 1.3959.625 1.3959 1.3958zm3.9635 1.4167c-.0885-1.8698-.5156-3.5261-1.8854-4.8906-1.3646-1.36462-3.0208-1.7917-4.8906-1.88545-1.9271-.10937-7.7031-.10937-9.6302 0-1.8646.08854-3.5209.51562-4.89066 1.88025-1.36979 1.3645-1.79166 3.0208-1.88542 4.8906-.10937 1.9271-.10937 7.7031 0 9.6302.08855 1.8698.51563 3.526 1.88542 4.8906 1.36976 1.3646 3.02086 1.7917 4.89066 1.8854 1.9271.1094 7.7031.1094 9.6302 0 1.8698-.0885 3.526-.5156 4.8906-1.8854 1.3646-1.3646 1.7917-3.0208 1.8854-4.8906.1094-1.9271.1094-7.6979 0-9.625zm-2.4896 11.6927c-.4062 1.0208-1.1927 1.8073-2.2187 2.2187-1.5365.6094-5.1823.4688-6.8802.4688s-5.349.1354-6.8802-.4688c-1.0209-.4062-1.8073-1.1927-2.2188-2.2187-.60936-1.5365-.4687-5.1823-.4687-6.8802s-.13545-5.349.4687-6.8802c.4063-1.0209 1.1927-1.8073 2.2188-2.2188 1.5364-.6093 5.1823-.4687 6.8802-.4687s5.3489-.1354 6.8802.4687c1.0208.4063 1.8073 1.1927 2.2187 2.2188.6094 1.5364.4688 5.1823.4688 6.8802s.1406 5.3489-.4688 6.8802z" fill="#fff"/></g></svg>